<svg width="52" height="22" viewBox="0 0 52 22" fill="none" xmlns="http://www.w3.org/2000/svg">
<rect width="52" height="22" fill="#333333"/>
<path d="M18.4941 12.5977H16.9473L16.4785 15H15.6406L16.1094 12.5977H14.709V11.7949H16.2617L16.666 9.7207H15.1543V8.90625H16.8242L17.3047 6.46875H18.1426L17.6621 8.90625H19.209L19.6895 6.46875H20.5332L20.0527 8.90625H21.248V9.7207H19.8945L19.4902 11.7949H20.8086V12.5977H19.3379L18.8691 15H18.0254L18.4941 12.5977ZM17.0996 11.7949H18.6465L19.0508 9.7207H17.5039L17.0996 11.7949ZM22.7598 15V9.49805H21.7578V8.66016H22.7598V8.00977C22.7598 7.33008 22.9414 6.80469 23.3047 6.43359C23.668 6.0625 24.1816 5.87695 24.8457 5.87695C25.0957 5.87695 25.3438 5.91016 25.5898 5.97656L25.5312 6.85547C25.3477 6.82031 25.1523 6.80273 24.9453 6.80273C24.5938 6.80273 24.3223 6.90625 24.1309 7.11328C23.9395 7.31641 23.8438 7.60938 23.8438 7.99219V8.66016H25.1973V9.49805H23.8438V15H22.7598ZM30.3125 14.373C29.8906 14.8691 29.2715 15.1172 28.4551 15.1172C27.7793 15.1172 27.2637 14.9219 26.9082 14.5312C26.5566 14.1367 26.3789 13.5547 26.375 12.7852V8.66016H27.459V12.7559C27.459 13.7168 27.8496 14.1973 28.6309 14.1973C29.459 14.1973 30.0098 13.8887 30.2832 13.2715V8.66016H31.3672V15H30.3359L30.3125 14.373ZM34.1387 8.66016V15.7324C34.1387 16.9512 33.5859 17.5605 32.4805 17.5605C32.2422 17.5605 32.0215 17.5254 31.8184 17.4551V16.5879C31.9434 16.6191 32.1074 16.6348 32.3105 16.6348C32.5527 16.6348 32.7363 16.5684 32.8613 16.4355C32.9902 16.3066 33.0547 16.0801 33.0547 15.7559V8.66016H34.1387ZM32.9434 6.97852C32.9434 6.80664 32.9961 6.66016 33.1016 6.53906C33.2109 6.41406 33.3691 6.35156 33.5762 6.35156C33.7871 6.35156 33.9473 6.41211 34.0566 6.5332C34.166 6.6543 34.2207 6.80273 34.2207 6.97852C34.2207 7.1543 34.166 7.30078 34.0566 7.41797C33.9473 7.53516 33.7871 7.59375 33.5762 7.59375C33.3652 7.59375 33.207 7.53516 33.1016 7.41797C32.9961 7.30078 32.9434 7.1543 32.9434 6.97852ZM37.0684 15H35.9844V8.66016H37.0684V15ZM35.8965 6.97852C35.8965 6.80273 35.9492 6.6543 36.0547 6.5332C36.1641 6.41211 36.3242 6.35156 36.5352 6.35156C36.7461 6.35156 36.9062 6.41211 37.0156 6.5332C37.125 6.6543 37.1797 6.80273 37.1797 6.97852C37.1797 7.1543 37.125 7.30078 37.0156 7.41797C36.9062 7.53516 36.7461 7.59375 36.5352 7.59375C36.3242 7.59375 36.1641 7.53516 36.0547 7.41797C35.9492 7.30078 35.8965 7.1543 35.8965 6.97852Z" fill="white"/>
</svg>
