<svg width="86" height="28" viewBox="0 0 86 28" fill="none" xmlns="http://www.w3.org/2000/svg">
<rect width="86" height="28" fill="#333333"/>
<path d="M19.4023 16.1973H17.5977L17.0508 19H16.0732L16.6201 16.1973H14.9863V15.2607H16.7979L17.2695 12.8408H15.5059V11.8906H17.4541L18.0146 9.04688H18.9922L18.4316 11.8906H20.2363L20.7969 9.04688H21.7812L21.2207 11.8906H22.6152V12.8408H21.0361L20.5645 15.2607H22.1025V16.1973H20.3867L19.8398 19H18.8555L19.4023 16.1973ZM17.7754 15.2607H19.5801L20.0518 12.8408H18.2471L17.7754 15.2607ZM29.8066 19H28.542V12.6494H25.1377V19H23.8662V11.6035H29.8066V19ZM34.9062 19.1367C33.9036 19.1367 33.0879 18.8086 32.459 18.1523C31.8301 17.4915 31.5156 16.6097 31.5156 15.5068V15.2744C31.5156 14.5407 31.6546 13.8867 31.9326 13.3125C32.2152 12.7337 32.6071 12.2826 33.1084 11.959C33.6143 11.6309 34.1611 11.4668 34.749 11.4668C35.7106 11.4668 36.458 11.7835 36.9912 12.417C37.5244 13.0505 37.791 13.9574 37.791 15.1377V15.6641H32.7803C32.7985 16.3932 33.0104 16.9834 33.416 17.4346C33.8262 17.8812 34.3457 18.1045 34.9746 18.1045C35.4212 18.1045 35.7995 18.0133 36.1094 17.8311C36.4193 17.6488 36.6904 17.4072 36.9229 17.1064L37.6953 17.708C37.0755 18.6605 36.1458 19.1367 34.9062 19.1367ZM34.749 12.5059C34.2386 12.5059 33.8102 12.6927 33.4639 13.0664C33.1175 13.4355 32.9033 13.9551 32.8213 14.625H36.5264V14.5293C36.4899 13.8867 36.3167 13.39 36.0068 13.0391C35.6969 12.6836 35.2777 12.5059 34.749 12.5059ZM44.0459 11.6035H45.3105V19H44.0459V13.6064L40.6348 19H39.3701V11.6035H40.6348V17.0039L44.0459 11.6035ZM44.3877 8.91016C44.3877 9.46159 44.1986 9.90592 43.8203 10.2432C43.4466 10.5758 42.9544 10.7422 42.3438 10.7422C41.7331 10.7422 41.2386 10.5736 40.8604 10.2363C40.4821 9.89909 40.293 9.45703 40.293 8.91016H41.3252C41.3252 9.22917 41.4118 9.47982 41.585 9.66211C41.7581 9.83984 42.0111 9.92871 42.3438 9.92871C42.6628 9.92871 42.9111 9.83984 43.0889 9.66211C43.2712 9.48438 43.3623 9.23372 43.3623 8.91016H44.3877ZM51.4082 13.627C51.4082 13.2806 51.276 13.0072 51.0117 12.8066C50.7474 12.6016 50.3851 12.499 49.9248 12.499C49.4782 12.499 49.1045 12.6152 48.8037 12.8477C48.5075 13.0801 48.3594 13.3535 48.3594 13.668H47.1016C47.1016 13.0254 47.3704 12.499 47.9082 12.0889C48.446 11.6787 49.1182 11.4736 49.9248 11.4736C50.7907 11.4736 51.4652 11.6605 51.9482 12.0342C52.4313 12.4033 52.6729 12.932 52.6729 13.6201C52.6729 13.9528 52.5726 14.2581 52.3721 14.5361C52.1715 14.8141 51.8867 15.0352 51.5176 15.1992C52.3789 15.4909 52.8096 16.0651 52.8096 16.9219C52.8096 17.6009 52.5475 18.1387 52.0234 18.5352C51.4993 18.9316 50.7998 19.1299 49.9248 19.1299C49.0726 19.1299 48.3685 18.9225 47.8125 18.5078C47.2611 18.0885 46.9854 17.5234 46.9854 16.8125H48.2432C48.2432 17.1725 48.4027 17.4824 48.7217 17.7422C49.0452 17.9974 49.4463 18.125 49.9248 18.125C50.4079 18.125 50.7975 18.0133 51.0938 17.79C51.39 17.5667 51.5381 17.2773 51.5381 16.9219C51.5381 16.5072 51.4128 16.2109 51.1621 16.0332C50.916 15.8509 50.5309 15.7598 50.0068 15.7598H48.7422V14.6934H50.1162C50.9775 14.6706 51.4082 14.3151 51.4082 13.627ZM59.0166 19C58.9437 18.8542 58.8844 18.5944 58.8389 18.2207C58.251 18.8314 57.5492 19.1367 56.7334 19.1367C56.0042 19.1367 55.4049 18.9316 54.9355 18.5215C54.4707 18.1068 54.2383 17.5827 54.2383 16.9492C54.2383 16.179 54.5299 15.582 55.1133 15.1582C55.7012 14.7298 56.526 14.5156 57.5879 14.5156H58.8184V13.9346C58.8184 13.4925 58.6862 13.1416 58.4219 12.8818C58.1576 12.6175 57.7679 12.4854 57.2529 12.4854C56.8018 12.4854 56.4235 12.5993 56.1182 12.8271C55.8128 13.055 55.6602 13.3307 55.6602 13.6543H54.3887C54.3887 13.2852 54.5186 12.9297 54.7783 12.5879C55.0426 12.2415 55.3981 11.9681 55.8447 11.7676C56.2959 11.5671 56.7904 11.4668 57.3281 11.4668C58.1803 11.4668 58.848 11.681 59.3311 12.1094C59.8141 12.5332 60.0648 13.1188 60.083 13.8662V17.2705C60.083 17.9495 60.1696 18.4896 60.3428 18.8906V19H59.0166ZM56.918 18.0361C57.3145 18.0361 57.6904 17.9336 58.0459 17.7285C58.4014 17.5234 58.6589 17.2568 58.8184 16.9287V15.4111H57.8271C56.2777 15.4111 55.5029 15.8646 55.5029 16.7715C55.5029 17.168 55.6351 17.4779 55.8994 17.7012C56.1637 17.9245 56.5033 18.0361 56.918 18.0361ZM67.9648 15.7871H67.0762V19H65.8115V15.7871H64.9229L62.8516 19H61.252L63.8975 15.1719L61.5049 11.6035H63.0361L64.9434 14.666H65.8115V11.6035H67.0762V14.666H67.9375L69.8584 11.6035H71.3896L68.9902 15.1787L71.6357 19H70.0361L67.9648 15.7871Z" fill="white"/>
</svg>
