<svg width="93" height="28" viewBox="0 0 93 28" fill="none" xmlns="http://www.w3.org/2000/svg">
<rect width="93" height="28" fill="#333333"/>
<path d="M19.2793 16.1973H17.4746L16.9277 19H15.9502L16.4971 16.1973H14.8633V15.2607H16.6748L17.1465 12.8408H15.3828V11.8906H17.3311L17.8916 9.04688H18.8691L18.3086 11.8906H20.1133L20.6738 9.04688H21.6582L21.0977 11.8906H22.4922V12.8408H20.9131L20.4414 15.2607H21.9795V16.1973H20.2637L19.7168 19H18.7324L19.2793 16.1973ZM17.6523 15.2607H19.457L19.9287 12.8408H18.124L17.6523 15.2607ZM29.6836 19H28.4189V12.6494H25.0146V19H23.7432V11.6035H29.6836V19ZM37.9619 15.3838C37.9619 16.5094 37.7044 17.4163 37.1895 18.1045C36.6745 18.7926 35.9772 19.1367 35.0977 19.1367C34.1999 19.1367 33.4935 18.8519 32.9785 18.2822V21.8438H31.7139V11.6035H32.8691L32.9307 12.4238C33.4456 11.7858 34.1611 11.4668 35.0771 11.4668C35.9658 11.4668 36.6676 11.8018 37.1826 12.4717C37.7021 13.1416 37.9619 14.0736 37.9619 15.2676V15.3838ZM36.6973 15.2402C36.6973 14.4062 36.5195 13.7477 36.1641 13.2646C35.8086 12.7816 35.321 12.54 34.7012 12.54C33.9355 12.54 33.3613 12.8796 32.9785 13.5586V17.0928C33.3568 17.7673 33.9355 18.1045 34.7148 18.1045C35.321 18.1045 35.8018 17.8652 36.1572 17.3867C36.5173 16.9036 36.6973 16.1882 36.6973 15.2402ZM42.6445 19.1367C41.6419 19.1367 40.8262 18.8086 40.1973 18.1523C39.5684 17.4915 39.2539 16.6097 39.2539 15.5068V15.2744C39.2539 14.5407 39.3929 13.8867 39.6709 13.3125C39.9535 12.7337 40.3454 12.2826 40.8467 11.959C41.3525 11.6309 41.8994 11.4668 42.4873 11.4668C43.4489 11.4668 44.1963 11.7835 44.7295 12.417C45.2627 13.0505 45.5293 13.9574 45.5293 15.1377V15.6641H40.5186C40.5368 16.3932 40.7487 16.9834 41.1543 17.4346C41.5645 17.8812 42.084 18.1045 42.7129 18.1045C43.1595 18.1045 43.5378 18.0133 43.8477 17.8311C44.1576 17.6488 44.4287 17.4072 44.6611 17.1064L45.4336 17.708C44.8138 18.6605 43.8841 19.1367 42.6445 19.1367ZM42.4873 12.5059C41.9769 12.5059 41.5485 12.6927 41.2021 13.0664C40.8558 13.4355 40.6416 13.9551 40.5596 14.625H44.2646V14.5293C44.2282 13.8867 44.055 13.39 43.7451 13.0391C43.4352 12.6836 43.016 12.5059 42.4873 12.5059ZM46.9375 17.9678L47.375 17.4277C47.8672 16.7897 48.1475 15.8327 48.2158 14.5566L48.332 11.6035H53.0967V17.9678H54.0469V21.1738H52.7822V19H47.6211V21.1738H46.3564L46.3633 17.9678H46.9375ZM48.4346 17.9678H51.832V12.7725H49.5557L49.4805 14.5361C49.403 16.0081 49.0544 17.152 48.4346 17.9678ZM59.707 17.3252L62.2227 11.6035H63.8018V19H62.5371V13.6201L60.1445 19H59.2695L56.8291 13.5039V19H55.5645V11.6035H57.2051L59.707 17.3252ZM68.9082 19.1367C67.9056 19.1367 67.0898 18.8086 66.4609 18.1523C65.832 17.4915 65.5176 16.6097 65.5176 15.5068V15.2744C65.5176 14.5407 65.6566 13.8867 65.9346 13.3125C66.2171 12.7337 66.609 12.2826 67.1104 11.959C67.6162 11.6309 68.1631 11.4668 68.751 11.4668C69.7126 11.4668 70.46 11.7835 70.9932 12.417C71.5264 13.0505 71.793 13.9574 71.793 15.1377V15.6641H66.7822C66.8005 16.3932 67.0124 16.9834 67.418 17.4346C67.8281 17.8812 68.3477 18.1045 68.9766 18.1045C69.4232 18.1045 69.8014 18.0133 70.1113 17.8311C70.4212 17.6488 70.6924 17.4072 70.9248 17.1064L71.6973 17.708C71.0775 18.6605 70.1478 19.1367 68.9082 19.1367ZM68.751 12.5059C68.2406 12.5059 67.8122 12.6927 67.4658 13.0664C67.1195 13.4355 66.9053 13.9551 66.8232 14.625H70.5283V14.5293C70.4919 13.8867 70.3187 13.39 70.0088 13.0391C69.6989 12.6836 69.2796 12.5059 68.751 12.5059ZM78.6768 12.6289H76.1953V19H74.9307V12.6289H72.4971V11.6035H78.6768V12.6289Z" fill="white"/>
</svg>
