<svg width="80" height="22" viewBox="0 0 80 22" fill="none" xmlns="http://www.w3.org/2000/svg">
<rect width="80" height="22" fill="#333333"/>
<path d="M18.4844 12.5977H16.9375L16.4688 15H15.6309L16.0996 12.5977H14.6992V11.7949H16.252L16.6562 9.7207H15.1445V8.90625H16.8145L17.2949 6.46875H18.1328L17.6523 8.90625H19.1992L19.6797 6.46875H20.5234L20.043 8.90625H21.2383V9.7207H19.8848L19.4805 11.7949H20.7988V12.5977H19.3281L18.8594 15H18.0156L18.4844 12.5977ZM17.0898 11.7949H18.6367L19.041 9.7207H17.4941L17.0898 11.7949ZM27.4023 15H26.3184V9.55664H23.4004V15H22.3105V8.66016H27.4023V15ZM28.8555 11.7715C28.8555 11.1504 28.9766 10.5918 29.2188 10.0957C29.4648 9.59961 29.8047 9.2168 30.2383 8.94727C30.6758 8.67773 31.1738 8.54297 31.7324 8.54297C32.5957 8.54297 33.293 8.8418 33.8242 9.43945C34.3594 10.0371 34.627 10.832 34.627 11.8242V11.9004C34.627 12.5176 34.5078 13.0723 34.2695 13.5645C34.0352 14.0527 33.6973 14.4336 33.2559 14.707C32.8184 14.9805 32.3145 15.1172 31.7441 15.1172C30.8848 15.1172 30.1875 14.8184 29.6523 14.2207C29.1211 13.623 28.8555 12.832 28.8555 11.8477V11.7715ZM29.9453 11.9004C29.9453 12.6035 30.1074 13.168 30.4316 13.5938C30.7598 14.0195 31.1973 14.2324 31.7441 14.2324C32.2949 14.2324 32.7324 14.0176 33.0566 13.5879C33.3809 13.1543 33.543 12.5488 33.543 11.7715C33.543 11.0762 33.377 10.5137 33.0449 10.084C32.7168 9.65039 32.2793 9.43359 31.7324 9.43359C31.1973 9.43359 30.7656 9.64648 30.4375 10.0723C30.1094 10.498 29.9453 11.1074 29.9453 11.9004ZM41.3418 11.9004C41.3418 12.8652 41.1211 13.6426 40.6797 14.2324C40.2383 14.8223 39.6406 15.1172 38.8867 15.1172C38.1172 15.1172 37.5117 14.873 37.0703 14.3848V17.4375H35.9863V8.66016H36.9766L37.0293 9.36328C37.4707 8.81641 38.084 8.54297 38.8691 8.54297C39.6309 8.54297 40.2324 8.83008 40.6738 9.4043C41.1191 9.97852 41.3418 10.7773 41.3418 11.8008V11.9004ZM40.2578 11.7773C40.2578 11.0625 40.1055 10.498 39.8008 10.084C39.4961 9.66992 39.0781 9.46289 38.5469 9.46289C37.8906 9.46289 37.3984 9.75391 37.0703 10.3359V13.3652C37.3945 13.9434 37.8906 14.2324 38.5586 14.2324C39.0781 14.2324 39.4902 14.0273 39.7949 13.6172C40.1035 13.2031 40.2578 12.5898 40.2578 11.7773ZM46.9668 9.53906H44.8398V15H43.7559V9.53906H41.6699V8.66016H46.9668V9.53906ZM53.377 11.9004C53.377 12.8652 53.1562 13.6426 52.7148 14.2324C52.2734 14.8223 51.6758 15.1172 50.9219 15.1172C50.1523 15.1172 49.5469 14.873 49.1055 14.3848V17.4375H48.0215V8.66016H49.0117L49.0645 9.36328C49.5059 8.81641 50.1191 8.54297 50.9043 8.54297C51.666 8.54297 52.2676 8.83008 52.709 9.4043C53.1543 9.97852 53.377 10.7773 53.377 11.8008V11.9004ZM52.293 11.7773C52.293 11.0625 52.1406 10.498 51.8359 10.084C51.5312 9.66992 51.1133 9.46289 50.582 9.46289C49.9258 9.46289 49.4336 9.75391 49.1055 10.3359V13.3652C49.4297 13.9434 49.9258 14.2324 50.5938 14.2324C51.1133 14.2324 51.5254 14.0273 51.8301 13.6172C52.1387 13.2031 52.293 12.5898 52.293 11.7773ZM57.3906 15.1172C56.5312 15.1172 55.832 14.8359 55.293 14.2734C54.7539 13.707 54.4844 12.9512 54.4844 12.0059V11.8066C54.4844 11.1777 54.6035 10.6172 54.8418 10.125C55.084 9.62891 55.4199 9.24219 55.8496 8.96484C56.2832 8.68359 56.752 8.54297 57.2559 8.54297C58.0801 8.54297 58.7207 8.81445 59.1777 9.35742C59.6348 9.90039 59.8633 10.6777 59.8633 11.6895V12.1406H55.5684C55.584 12.7656 55.7656 13.2715 56.1133 13.6582C56.4648 14.041 56.9102 14.2324 57.4492 14.2324C57.832 14.2324 58.1562 14.1543 58.4219 13.998C58.6875 13.8418 58.9199 13.6348 59.1191 13.377L59.7812 13.8926C59.25 14.709 58.4531 15.1172 57.3906 15.1172ZM57.2559 9.43359C56.8184 9.43359 56.4512 9.59375 56.1543 9.91406C55.8574 10.2305 55.6738 10.6758 55.6035 11.25H58.7793V11.168C58.748 10.6172 58.5996 10.1914 58.334 9.89062C58.0684 9.58594 57.709 9.43359 57.2559 9.43359ZM65.7637 9.53906H63.6367V15H62.5527V9.53906H60.4668V8.66016H65.7637V9.53906Z" fill="white"/>
</svg>
