<svg width="89" height="28" viewBox="0 0 89 28" fill="none" xmlns="http://www.w3.org/2000/svg">
<rect width="89" height="28" fill="#333333"/>
<path d="M19.3984 16.1973H17.5938L17.0469 19H16.0693L16.6162 16.1973H14.9824V15.2607H16.7939L17.2656 12.8408H15.502V11.8906H17.4502L18.0107 9.04688H18.9883L18.4277 11.8906H20.2324L20.793 9.04688H21.7773L21.2168 11.8906H22.6113V12.8408H21.0322L20.5605 15.2607H22.0986V16.1973H20.3828L19.8359 19H18.8516L19.3984 16.1973ZM17.7715 15.2607H19.5762L20.0479 12.8408H18.2432L17.7715 15.2607ZM29.8027 19H28.5381V12.6494H25.1338V19H23.8623V11.6035H29.8027V19ZM31.498 15.2334C31.498 14.5088 31.6393 13.8571 31.9219 13.2783C32.209 12.6995 32.6055 12.2529 33.1113 11.9385C33.6217 11.624 34.2028 11.4668 34.8545 11.4668C35.8617 11.4668 36.6751 11.8154 37.2949 12.5127C37.9193 13.21 38.2314 14.1374 38.2314 15.2949V15.3838C38.2314 16.1038 38.0924 16.751 37.8145 17.3252C37.541 17.8949 37.1468 18.3392 36.6318 18.6582C36.1214 18.9772 35.5335 19.1367 34.8682 19.1367C33.8656 19.1367 33.0521 18.7881 32.4277 18.0908C31.8079 17.3936 31.498 16.4707 31.498 15.3223V15.2334ZM32.7695 15.3838C32.7695 16.2041 32.9587 16.8626 33.3369 17.3594C33.7197 17.8561 34.2301 18.1045 34.8682 18.1045C35.5107 18.1045 36.0212 17.8538 36.3994 17.3525C36.7777 16.8467 36.9668 16.1403 36.9668 15.2334C36.9668 14.4222 36.7731 13.766 36.3857 13.2646C36.0029 12.7588 35.4925 12.5059 34.8545 12.5059C34.2301 12.5059 33.7266 12.7542 33.3438 13.251C32.9609 13.7477 32.7695 14.4587 32.7695 15.3838ZM46.0654 15.3838C46.0654 16.5094 45.8079 17.4163 45.293 18.1045C44.778 18.7926 44.0807 19.1367 43.2012 19.1367C42.3034 19.1367 41.597 18.8519 41.082 18.2822V21.8438H39.8174V11.6035H40.9727L41.0342 12.4238C41.5492 11.7858 42.2646 11.4668 43.1807 11.4668C44.0693 11.4668 44.7712 11.8018 45.2861 12.4717C45.8057 13.1416 46.0654 14.0736 46.0654 15.2676V15.3838ZM44.8008 15.2402C44.8008 14.4062 44.623 13.7477 44.2676 13.2646C43.9121 12.7816 43.4245 12.54 42.8047 12.54C42.0391 12.54 41.4648 12.8796 41.082 13.5586V17.0928C41.4603 17.7673 42.0391 18.1045 42.8184 18.1045C43.4245 18.1045 43.9053 17.8652 44.2607 17.3867C44.6208 16.9036 44.8008 16.1882 44.8008 15.2402ZM52.6279 12.6289H50.1465V19H48.8818V12.6289H46.4482V11.6035H52.6279V12.6289ZM60.1064 15.3838C60.1064 16.5094 59.849 17.4163 59.334 18.1045C58.819 18.7926 58.1217 19.1367 57.2422 19.1367C56.3444 19.1367 55.638 18.8519 55.123 18.2822V21.8438H53.8584V11.6035H55.0137L55.0752 12.4238C55.5902 11.7858 56.3057 11.4668 57.2217 11.4668C58.1104 11.4668 58.8122 11.8018 59.3271 12.4717C59.8467 13.1416 60.1064 14.0736 60.1064 15.2676V15.3838ZM58.8418 15.2402C58.8418 14.4062 58.6641 13.7477 58.3086 13.2646C57.9531 12.7816 57.4655 12.54 56.8457 12.54C56.0801 12.54 55.5059 12.8796 55.123 13.5586V17.0928C55.5013 17.7673 56.0801 18.1045 56.8594 18.1045C57.4655 18.1045 57.9463 17.8652 58.3018 17.3867C58.6618 16.9036 58.8418 16.1882 58.8418 15.2402ZM64.7891 19.1367C63.7865 19.1367 62.9707 18.8086 62.3418 18.1523C61.7129 17.4915 61.3984 16.6097 61.3984 15.5068V15.2744C61.3984 14.5407 61.5374 13.8867 61.8154 13.3125C62.098 12.7337 62.4899 12.2826 62.9912 11.959C63.4971 11.6309 64.0439 11.4668 64.6318 11.4668C65.5934 11.4668 66.3408 11.7835 66.874 12.417C67.4072 13.0505 67.6738 13.9574 67.6738 15.1377V15.6641H62.6631C62.6813 16.3932 62.8932 16.9834 63.2988 17.4346C63.709 17.8812 64.2285 18.1045 64.8574 18.1045C65.304 18.1045 65.6823 18.0133 65.9922 17.8311C66.3021 17.6488 66.5732 17.4072 66.8057 17.1064L67.5781 17.708C66.9583 18.6605 66.0286 19.1367 64.7891 19.1367ZM64.6318 12.5059C64.1214 12.5059 63.693 12.6927 63.3467 13.0664C63.0003 13.4355 62.7861 13.9551 62.7041 14.625H66.4092V14.5293C66.3727 13.8867 66.1995 13.39 65.8896 13.0391C65.5798 12.6836 65.1605 12.5059 64.6318 12.5059ZM74.5576 12.6289H72.0762V19H70.8115V12.6289H68.3779V11.6035H74.5576V12.6289Z" fill="white"/>
</svg>
