<svg width="90" height="28" viewBox="0 0 90 28" fill="none" xmlns="http://www.w3.org/2000/svg">
<rect width="89" height="28" transform="translate(0.5)" fill="#333333"/>
<path d="M19.8984 16.1973H18.0938L17.5469 19H16.5693L17.1162 16.1973H15.4824V15.2607H17.2939L17.7656 12.8408H16.002V11.8906H17.9502L18.5107 9.04688H19.4883L18.9277 11.8906H20.7324L21.293 9.04688H22.2773L21.7168 11.8906H23.1113V12.8408H21.5322L21.0605 15.2607H22.5986V16.1973H20.8828L20.3359 19H19.3516L19.8984 16.1973ZM18.2715 15.2607H20.0762L20.5479 12.8408H18.7432L18.2715 15.2607ZM30.3027 19H29.0381V12.6494H25.6338V19H24.3623V11.6035H30.3027V19ZM31.998 15.2334C31.998 14.5088 32.1393 13.8571 32.4219 13.2783C32.709 12.6995 33.1055 12.2529 33.6113 11.9385C34.1217 11.624 34.7028 11.4668 35.3545 11.4668C36.3617 11.4668 37.1751 11.8154 37.7949 12.5127C38.4193 13.21 38.7314 14.1374 38.7314 15.2949V15.3838C38.7314 16.1038 38.5924 16.751 38.3145 17.3252C38.041 17.8949 37.6468 18.3392 37.1318 18.6582C36.6214 18.9772 36.0335 19.1367 35.3682 19.1367C34.3656 19.1367 33.5521 18.7881 32.9277 18.0908C32.3079 17.3936 31.998 16.4707 31.998 15.3223V15.2334ZM33.2695 15.3838C33.2695 16.2041 33.4587 16.8626 33.8369 17.3594C34.2197 17.8561 34.7301 18.1045 35.3682 18.1045C36.0107 18.1045 36.5212 17.8538 36.8994 17.3525C37.2777 16.8467 37.4668 16.1403 37.4668 15.2334C37.4668 14.4222 37.2731 13.766 36.8857 13.2646C36.5029 12.7588 35.9925 12.5059 35.3545 12.5059C34.7301 12.5059 34.2266 12.7542 33.8438 13.251C33.4609 13.7477 33.2695 14.4587 33.2695 15.3838ZM46.5654 15.3838C46.5654 16.5094 46.3079 17.4163 45.793 18.1045C45.278 18.7926 44.5807 19.1367 43.7012 19.1367C42.8034 19.1367 42.097 18.8519 41.582 18.2822V21.8438H40.3174V11.6035H41.4727L41.5342 12.4238C42.0492 11.7858 42.7646 11.4668 43.6807 11.4668C44.5693 11.4668 45.2712 11.8018 45.7861 12.4717C46.3057 13.1416 46.5654 14.0736 46.5654 15.2676V15.3838ZM45.3008 15.2402C45.3008 14.4062 45.123 13.7477 44.7676 13.2646C44.4121 12.7816 43.9245 12.54 43.3047 12.54C42.5391 12.54 41.9648 12.8796 41.582 13.5586V17.0928C41.9603 17.7673 42.5391 18.1045 43.3184 18.1045C43.9245 18.1045 44.4053 17.8652 44.7607 17.3867C45.1208 16.9036 45.3008 16.1882 45.3008 15.2402ZM53.1279 12.6289H50.6465V19H49.3818V12.6289H46.9482V11.6035H53.1279V12.6289ZM60.6064 15.3838C60.6064 16.5094 60.349 17.4163 59.834 18.1045C59.319 18.7926 58.6217 19.1367 57.7422 19.1367C56.8444 19.1367 56.138 18.8519 55.623 18.2822V21.8438H54.3584V11.6035H55.5137L55.5752 12.4238C56.0902 11.7858 56.8057 11.4668 57.7217 11.4668C58.6104 11.4668 59.3122 11.8018 59.8271 12.4717C60.3467 13.1416 60.6064 14.0736 60.6064 15.2676V15.3838ZM59.3418 15.2402C59.3418 14.4062 59.1641 13.7477 58.8086 13.2646C58.4531 12.7816 57.9655 12.54 57.3457 12.54C56.5801 12.54 56.0059 12.8796 55.623 13.5586V17.0928C56.0013 17.7673 56.5801 18.1045 57.3594 18.1045C57.9655 18.1045 58.4463 17.8652 58.8018 17.3867C59.1618 16.9036 59.3418 16.1882 59.3418 15.2402ZM65.2891 19.1367C64.2865 19.1367 63.4707 18.8086 62.8418 18.1523C62.2129 17.4915 61.8984 16.6097 61.8984 15.5068V15.2744C61.8984 14.5407 62.0374 13.8867 62.3154 13.3125C62.598 12.7337 62.9899 12.2826 63.4912 11.959C63.9971 11.6309 64.5439 11.4668 65.1318 11.4668C66.0934 11.4668 66.8408 11.7835 67.374 12.417C67.9072 13.0505 68.1738 13.9574 68.1738 15.1377V15.6641H63.1631C63.1813 16.3932 63.3932 16.9834 63.7988 17.4346C64.209 17.8812 64.7285 18.1045 65.3574 18.1045C65.804 18.1045 66.1823 18.0133 66.4922 17.8311C66.8021 17.6488 67.0732 17.4072 67.3057 17.1064L68.0781 17.708C67.4583 18.6605 66.5286 19.1367 65.2891 19.1367ZM65.1318 12.5059C64.6214 12.5059 64.193 12.6927 63.8467 13.0664C63.5003 13.4355 63.2861 13.9551 63.2041 14.625H66.9092V14.5293C66.8727 13.8867 66.6995 13.39 66.3896 13.0391C66.0798 12.6836 65.6605 12.5059 65.1318 12.5059ZM75.0576 12.6289H72.5762V19H71.3115V12.6289H68.8779V11.6035H75.0576V12.6289Z" fill="white"/>
</svg>
