<svg width="85" height="28" viewBox="0 0 85 28" fill="none" xmlns="http://www.w3.org/2000/svg">
<rect width="85" height="28" fill="#333333"/>
<path d="M19.6338 16.1973H17.8291L17.2822 19H16.3047L16.8516 16.1973H15.2178V15.2607H17.0293L17.501 12.8408H15.7373V11.8906H17.6855L18.2461 9.04688H19.2236L18.6631 11.8906H20.4678L21.0283 9.04688H22.0127L21.4521 11.8906H22.8467V12.8408H21.2676L20.7959 15.2607H22.334V16.1973H20.6182L20.0713 19H19.0869L19.6338 16.1973ZM18.0068 15.2607H19.8115L20.2832 12.8408H18.4785L18.0068 15.2607ZM30.2363 15.3838C30.2363 16.5094 29.9788 17.4163 29.4639 18.1045C28.9489 18.7926 28.2516 19.1367 27.3721 19.1367C26.4743 19.1367 25.7679 18.8519 25.2529 18.2822V21.8438H23.9883V11.6035H25.1436L25.2051 12.4238C25.7201 11.7858 26.4355 11.4668 27.3516 11.4668C28.2402 11.4668 28.9421 11.8018 29.457 12.4717C29.9766 13.1416 30.2363 14.0736 30.2363 15.2676V15.3838ZM28.9717 15.2402C28.9717 14.4062 28.7939 13.7477 28.4385 13.2646C28.083 12.7816 27.5954 12.54 26.9756 12.54C26.21 12.54 25.6357 12.8796 25.2529 13.5586V17.0928C25.6312 17.7673 26.21 18.1045 26.9893 18.1045C27.5954 18.1045 28.0762 17.8652 28.4316 17.3867C28.7917 16.9036 28.9717 16.1882 28.9717 15.2402ZM34.9189 19.1367C33.9163 19.1367 33.1006 18.8086 32.4717 18.1523C31.8428 17.4915 31.5283 16.6097 31.5283 15.5068V15.2744C31.5283 14.5407 31.6673 13.8867 31.9453 13.3125C32.2279 12.7337 32.6198 12.2826 33.1211 11.959C33.627 11.6309 34.1738 11.4668 34.7617 11.4668C35.7233 11.4668 36.4707 11.7835 37.0039 12.417C37.5371 13.0505 37.8037 13.9574 37.8037 15.1377V15.6641H32.793C32.8112 16.3932 33.0231 16.9834 33.4287 17.4346C33.8389 17.8812 34.3584 18.1045 34.9873 18.1045C35.4339 18.1045 35.8122 18.0133 36.1221 17.8311C36.432 17.6488 36.7031 17.4072 36.9355 17.1064L37.708 17.708C37.0882 18.6605 36.1585 19.1367 34.9189 19.1367ZM34.7617 12.5059C34.2513 12.5059 33.8229 12.6927 33.4766 13.0664C33.1302 13.4355 32.916 13.9551 32.834 14.625H36.5391V14.5293C36.5026 13.8867 36.3294 13.39 36.0195 13.0391C35.7096 12.6836 35.2904 12.5059 34.7617 12.5059ZM44.6875 12.6289H42.2061V19H40.9414V12.6289H38.5078V11.6035H44.6875V12.6289ZM48.4199 17.1475L50.1426 11.6035H51.4961L48.5225 20.1416C48.0622 21.3721 47.3307 21.9873 46.3281 21.9873L46.0889 21.9668L45.6172 21.8779V20.8525L45.959 20.8799C46.3874 20.8799 46.7201 20.7933 46.957 20.6201C47.1986 20.4469 47.3968 20.1302 47.5518 19.6699L47.832 18.918L45.1934 11.6035H46.5742L48.4199 17.1475ZM54.0117 11.6035V17.9678H56.7188V11.6035H57.9834V17.9678H60.6836V11.6035H61.9551V19H52.7402V11.6035H54.0117ZM65.332 14.1533H67.2529C68.0915 14.1624 68.7546 14.3812 69.2422 14.8096C69.7298 15.238 69.9736 15.819 69.9736 16.5527C69.9736 17.291 69.723 17.8835 69.2217 18.3301C68.7204 18.7767 68.0459 19 67.1982 19H64.0674V11.6035H65.332V14.1533ZM65.332 15.1855V17.9678H67.2119C67.6859 17.9678 68.0527 17.847 68.3125 17.6055C68.5723 17.3594 68.7021 17.0244 68.7021 16.6006C68.7021 16.1904 68.5745 15.8555 68.3193 15.5957C68.0687 15.3314 67.7155 15.1947 67.2598 15.1855H65.332Z" fill="white"/>
</svg>
