<svg width="77" height="22" viewBox="0 0 77 22" fill="none" xmlns="http://www.w3.org/2000/svg">
<rect width="77" height="22" fill="#333333"/>
<path d="M18.9004 12.5977H17.3535L16.8848 15H16.0469L16.5156 12.5977H15.1152V11.7949H16.668L17.0723 9.7207H15.5605V8.90625H17.2305L17.7109 6.46875H18.5488L18.0684 8.90625H19.6152L20.0957 6.46875H20.9395L20.459 8.90625H21.6543V9.7207H20.3008L19.8965 11.7949H21.2148V12.5977H19.7441L19.2754 15H18.4316L18.9004 12.5977ZM17.5059 11.7949H19.0527L19.457 9.7207H17.9102L17.5059 11.7949ZM27.9883 11.9004C27.9883 12.8652 27.7676 13.6426 27.3262 14.2324C26.8848 14.8223 26.2871 15.1172 25.5332 15.1172C24.7637 15.1172 24.1582 14.873 23.7168 14.3848V17.4375H22.6328V8.66016H23.623L23.6758 9.36328C24.1172 8.81641 24.7305 8.54297 25.5156 8.54297C26.2773 8.54297 26.8789 8.83008 27.3203 9.4043C27.7656 9.97852 27.9883 10.7773 27.9883 11.8008V11.9004ZM26.9043 11.7773C26.9043 11.0625 26.752 10.498 26.4473 10.084C26.1426 9.66992 25.7246 9.46289 25.1934 9.46289C24.5371 9.46289 24.0449 9.75391 23.7168 10.3359V13.3652C24.041 13.9434 24.5371 14.2324 25.2051 14.2324C25.7246 14.2324 26.1367 14.0273 26.4414 13.6172C26.75 13.2031 26.9043 12.5898 26.9043 11.7773ZM32.002 15.1172C31.1426 15.1172 30.4434 14.8359 29.9043 14.2734C29.3652 13.707 29.0957 12.9512 29.0957 12.0059V11.8066C29.0957 11.1777 29.2148 10.6172 29.4531 10.125C29.6953 9.62891 30.0312 9.24219 30.4609 8.96484C30.8945 8.68359 31.3633 8.54297 31.8672 8.54297C32.6914 8.54297 33.332 8.81445 33.7891 9.35742C34.2461 9.90039 34.4746 10.6777 34.4746 11.6895V12.1406H30.1797C30.1953 12.7656 30.377 13.2715 30.7246 13.6582C31.0762 14.041 31.5215 14.2324 32.0605 14.2324C32.4434 14.2324 32.7676 14.1543 33.0332 13.998C33.2988 13.8418 33.5312 13.6348 33.7305 13.377L34.3926 13.8926C33.8613 14.709 33.0645 15.1172 32.002 15.1172ZM31.8672 9.43359C31.4297 9.43359 31.0625 9.59375 30.7656 9.91406C30.4688 10.2305 30.2852 10.6758 30.2148 11.25H33.3906V11.168C33.3594 10.6172 33.2109 10.1914 32.9453 9.89062C32.6797 9.58594 32.3203 9.43359 31.8672 9.43359ZM40.375 9.53906H38.248V15H37.1641V9.53906H35.0781V8.66016H40.375V9.53906ZM43.5742 13.4121L45.0508 8.66016H46.2109L43.6621 15.9785C43.2676 17.0332 42.6406 17.5605 41.7812 17.5605L41.5762 17.543L41.1719 17.4668V16.5879L41.4648 16.6113C41.832 16.6113 42.1172 16.5371 42.3203 16.3887C42.5273 16.2402 42.6973 15.9688 42.8301 15.5742L43.0703 14.9297L40.8086 8.66016H41.9922L43.5742 13.4121ZM48.3672 8.66016V14.1152H50.6875V8.66016H51.7715V14.1152H54.0859V8.66016H55.1758V15H47.2773V8.66016H48.3672ZM58.0703 10.8457H59.7168C60.4355 10.8535 61.0039 11.041 61.4219 11.4082C61.8398 11.7754 62.0488 12.2734 62.0488 12.9023C62.0488 13.5352 61.834 14.043 61.4043 14.4258C60.9746 14.8086 60.3965 15 59.6699 15H56.9863V8.66016H58.0703V10.8457ZM58.0703 11.7305V14.1152H59.6816C60.0879 14.1152 60.4023 14.0117 60.625 13.8047C60.8477 13.5938 60.959 13.3066 60.959 12.9434C60.959 12.5918 60.8496 12.3047 60.6309 12.082C60.416 11.8555 60.1133 11.7383 59.7227 11.7305H58.0703Z" fill="white"/>
</svg>
