<svg width="56" height="28" viewBox="0 0 56 28" fill="none" xmlns="http://www.w3.org/2000/svg">
<rect width="56" height="28" fill="#333333"/>
<path d="M19.2432 16.1973H17.4385L16.8916 19H15.9141L16.4609 16.1973H14.8271V15.2607H16.6387L17.1104 12.8408H15.3467V11.8906H17.2949L17.8555 9.04688H18.833L18.2725 11.8906H20.0771L20.6377 9.04688H21.6221L21.0615 11.8906H22.4561V12.8408H20.877L20.4053 15.2607H21.9434V16.1973H20.2275L19.6807 19H18.6963L19.2432 16.1973ZM17.6162 15.2607H19.4209L19.8926 12.8408H18.0879L17.6162 15.2607ZM24.2197 19V12.5811H23.0508V11.6035H24.2197V10.8447C24.2197 10.0518 24.4316 9.4388 24.8555 9.00586C25.2793 8.57292 25.8786 8.35645 26.6533 8.35645C26.945 8.35645 27.2344 8.39518 27.5215 8.47266L27.4531 9.49805C27.2389 9.45703 27.0111 9.43652 26.7695 9.43652C26.3594 9.43652 26.0426 9.55729 25.8193 9.79883C25.596 10.0358 25.4844 10.3776 25.4844 10.8242V11.6035H27.0635V12.5811H25.4844V19H24.2197ZM33.0312 18.2686C32.5391 18.8473 31.8167 19.1367 30.8643 19.1367C30.0758 19.1367 29.4743 18.9089 29.0596 18.4531C28.6494 17.9928 28.4421 17.3138 28.4375 16.416V11.6035H29.7021V16.3818C29.7021 17.5029 30.1579 18.0635 31.0693 18.0635C32.0355 18.0635 32.6781 17.7035 32.9971 16.9834V11.6035H34.2617V19H33.0586L33.0312 18.2686ZM37.4951 11.6035V19.8545C37.4951 21.2764 36.8503 21.9873 35.5605 21.9873C35.2826 21.9873 35.0251 21.9463 34.7881 21.8643V20.8525C34.9339 20.889 35.1253 20.9072 35.3623 20.9072C35.6449 20.9072 35.859 20.8298 36.0049 20.6748C36.1553 20.5244 36.2305 20.2601 36.2305 19.8818V11.6035H37.4951ZM36.1006 9.6416C36.1006 9.44108 36.1621 9.27018 36.2852 9.12891C36.4128 8.98307 36.5973 8.91016 36.8389 8.91016C37.085 8.91016 37.2718 8.98079 37.3994 9.12207C37.527 9.26335 37.5908 9.43652 37.5908 9.6416C37.5908 9.84668 37.527 10.0176 37.3994 10.1543C37.2718 10.291 37.085 10.3594 36.8389 10.3594C36.5928 10.3594 36.4082 10.291 36.2852 10.1543C36.1621 10.0176 36.1006 9.84668 36.1006 9.6416ZM40.9131 19H39.6484V11.6035H40.9131V19ZM39.5459 9.6416C39.5459 9.43652 39.6074 9.26335 39.7305 9.12207C39.8581 8.98079 40.0449 8.91016 40.291 8.91016C40.5371 8.91016 40.724 8.98079 40.8516 9.12207C40.9792 9.26335 41.043 9.43652 41.043 9.6416C41.043 9.84668 40.9792 10.0176 40.8516 10.1543C40.724 10.291 40.5371 10.3594 40.291 10.3594C40.0449 10.3594 39.8581 10.291 39.7305 10.1543C39.6074 10.0176 39.5459 9.84668 39.5459 9.6416Z" fill="white"/>
</svg>
