<svg width="123" height="30" viewBox="0 0 123 30" fill="none" xmlns="http://www.w3.org/2000/svg">
<rect width="123" height="30" fill="#333333"/>
<path d="M19.5537 17.1973H17.749L17.2021 20H16.2246L16.7715 17.1973H15.1377V16.2607H16.9492L17.4209 13.8408H15.6572V12.8906H17.6055L18.166 10.0469H19.1436L18.583 12.8906H20.3877L20.9482 10.0469H21.9326L21.3721 12.8906H22.7666V13.8408H21.1875L20.7158 16.2607H22.2539V17.1973H20.5381L19.9912 20H19.0068L19.5537 17.1973ZM17.9268 16.2607H19.7314L20.2031 13.8408H18.3984L17.9268 16.2607ZM28.167 18.3252L30.6826 12.6035H32.2617V20H30.9971V14.6201L28.6045 20H27.7295L25.2891 14.5039V20H24.0244V12.6035H25.665L28.167 18.3252ZM38.8652 20C38.7923 19.8542 38.7331 19.5944 38.6875 19.2207C38.0996 19.8314 37.3978 20.1367 36.582 20.1367C35.8529 20.1367 35.2536 19.9316 34.7842 19.5215C34.3193 19.1068 34.0869 18.5827 34.0869 17.9492C34.0869 17.179 34.3786 16.582 34.9619 16.1582C35.5498 15.7298 36.3747 15.5156 37.4365 15.5156H38.667V14.9346C38.667 14.4925 38.5348 14.1416 38.2705 13.8818C38.0062 13.6175 37.6165 13.4854 37.1016 13.4854C36.6504 13.4854 36.2721 13.5993 35.9668 13.8271C35.6615 14.055 35.5088 14.3307 35.5088 14.6543H34.2373C34.2373 14.2852 34.3672 13.9297 34.627 13.5879C34.8913 13.2415 35.2467 12.9681 35.6934 12.7676C36.1445 12.5671 36.639 12.4668 37.1768 12.4668C38.029 12.4668 38.6966 12.681 39.1797 13.1094C39.6628 13.5332 39.9134 14.1188 39.9316 14.8662V18.2705C39.9316 18.9495 40.0182 19.4896 40.1914 19.8906V20H38.8652ZM36.7666 19.0361C37.1631 19.0361 37.5391 18.9336 37.8945 18.7285C38.25 18.5234 38.5075 18.2568 38.667 17.9287V16.4111H37.6758C36.1263 16.4111 35.3516 16.8646 35.3516 17.7715C35.3516 18.168 35.4837 18.4779 35.748 18.7012C36.0124 18.9245 36.3519 19.0361 36.7666 19.0361ZM44.8809 19.1045C45.332 19.1045 45.7262 18.9678 46.0635 18.6943C46.4007 18.4209 46.5876 18.0791 46.624 17.6689H47.8203C47.7975 18.0928 47.6517 18.4961 47.3828 18.8789C47.1139 19.2617 46.7539 19.5671 46.3027 19.7949C45.8561 20.0228 45.3822 20.1367 44.8809 20.1367C43.8737 20.1367 43.0716 19.8018 42.4746 19.1318C41.8822 18.4574 41.5859 17.5368 41.5859 16.3701V16.1582C41.5859 15.4382 41.7181 14.7979 41.9824 14.2373C42.2467 13.6768 42.625 13.2415 43.1172 12.9316C43.6139 12.6217 44.1995 12.4668 44.874 12.4668C45.7035 12.4668 46.3916 12.7152 46.9385 13.2119C47.4899 13.7087 47.7839 14.3535 47.8203 15.1465H46.624C46.5876 14.668 46.4053 14.276 46.0771 13.9707C45.7536 13.6608 45.3525 13.5059 44.874 13.5059C44.2314 13.5059 43.7324 13.7383 43.377 14.2031C43.026 14.6634 42.8506 15.3311 42.8506 16.2061V16.4453C42.8506 17.2975 43.026 17.9538 43.377 18.4141C43.7279 18.8743 44.2292 19.1045 44.8809 19.1045ZM54.7383 13.6289H52.2568V20H50.9922V13.6289H48.5586V12.6035H54.7383V13.6289ZM58.4912 20.1367C57.4886 20.1367 56.6729 19.8086 56.0439 19.1523C55.415 18.4915 55.1006 17.6097 55.1006 16.5068V16.2744C55.1006 15.5407 55.2396 14.8867 55.5176 14.3125C55.8001 13.7337 56.1921 13.2826 56.6934 12.959C57.1992 12.6309 57.7461 12.4668 58.334 12.4668C59.2956 12.4668 60.043 12.7835 60.5762 13.417C61.1094 14.0505 61.376 14.9574 61.376 16.1377V16.6641H56.3652C56.3835 17.3932 56.5954 17.9834 57.001 18.4346C57.4111 18.8812 57.9307 19.1045 58.5596 19.1045C59.0062 19.1045 59.3844 19.0133 59.6943 18.8311C60.0042 18.6488 60.2754 18.4072 60.5078 18.1064L61.2803 18.708C60.6605 19.6605 59.7308 20.1367 58.4912 20.1367ZM58.334 13.5059C57.8236 13.5059 57.3952 13.6927 57.0488 14.0664C56.7025 14.4355 56.4883 14.9551 56.4062 15.625H60.1113V15.5293C60.0749 14.8867 59.9017 14.39 59.5918 14.0391C59.2819 13.6836 58.8626 13.5059 58.334 13.5059ZM69.0938 16.3838C69.0938 17.5094 68.8363 18.4163 68.3213 19.1045C67.8063 19.7926 67.109 20.1367 66.2295 20.1367C65.3317 20.1367 64.6253 19.8519 64.1104 19.2822V22.8438H62.8457V12.6035H64.001L64.0625 13.4238C64.5775 12.7858 65.293 12.4668 66.209 12.4668C67.0977 12.4668 67.7995 12.8018 68.3145 13.4717C68.834 14.1416 69.0938 15.0736 69.0938 16.2676V16.3838ZM67.8291 16.2402C67.8291 15.4062 67.6514 14.7477 67.2959 14.2646C66.9404 13.7816 66.4528 13.54 65.833 13.54C65.0674 13.54 64.4932 13.8796 64.1104 14.5586V18.0928C64.4886 18.7673 65.0674 19.1045 65.8467 19.1045C66.4528 19.1045 66.9336 18.8652 67.2891 18.3867C67.6491 17.9036 67.8291 17.1882 67.8291 16.2402ZM73.0107 16.8486H72.0879V20H70.8164V12.6035H72.0879V15.7344H72.915L75.4033 12.6035H76.9346L74.0088 16.1582L77.1807 20H75.5742L73.0107 16.8486ZM84.3311 12.6035V20H83.0596V13.6494H80.5439L80.3936 16.418C80.3115 17.6895 80.0973 18.5986 79.751 19.1455C79.4092 19.6924 78.8646 19.9772 78.1172 20H77.6113V18.8857L77.9736 18.8584C78.3838 18.8128 78.6777 18.5758 78.8555 18.1475C79.0332 17.7191 79.1471 16.9261 79.1973 15.7686L79.334 12.6035H84.3311ZM90.9277 20C90.8548 19.8542 90.7956 19.5944 90.75 19.2207C90.1621 19.8314 89.4603 20.1367 88.6445 20.1367C87.9154 20.1367 87.3161 19.9316 86.8467 19.5215C86.3818 19.1068 86.1494 18.5827 86.1494 17.9492C86.1494 17.179 86.4411 16.582 87.0244 16.1582C87.6123 15.7298 88.4372 15.5156 89.499 15.5156H90.7295V14.9346C90.7295 14.4925 90.5973 14.1416 90.333 13.8818C90.0687 13.6175 89.679 13.4854 89.1641 13.4854C88.7129 13.4854 88.3346 13.5993 88.0293 13.8271C87.724 14.055 87.5713 14.3307 87.5713 14.6543H86.2998C86.2998 14.2852 86.4297 13.9297 86.6895 13.5879C86.9538 13.2415 87.3092 12.9681 87.7559 12.7676C88.207 12.5671 88.7015 12.4668 89.2393 12.4668C90.0915 12.4668 90.7591 12.681 91.2422 13.1094C91.7253 13.5332 91.9759 14.1188 91.9941 14.8662V18.2705C91.9941 18.9495 92.0807 19.4896 92.2539 19.8906V20H90.9277ZM88.8291 19.0361C89.2256 19.0361 89.6016 18.9336 89.957 18.7285C90.3125 18.5234 90.57 18.2568 90.7295 17.9287V16.4111H89.7383C88.1888 16.4111 87.4141 16.8646 87.4141 17.7715C87.4141 18.168 87.5462 18.4779 87.8105 18.7012C88.0749 18.9245 88.4144 19.0361 88.8291 19.0361ZM96.9434 19.1045C97.3945 19.1045 97.7887 18.9678 98.126 18.6943C98.4632 18.4209 98.6501 18.0791 98.6865 17.6689H99.8828C99.86 18.0928 99.7142 18.4961 99.4453 18.8789C99.1764 19.2617 98.8164 19.5671 98.3652 19.7949C97.9186 20.0228 97.4447 20.1367 96.9434 20.1367C95.9362 20.1367 95.1341 19.8018 94.5371 19.1318C93.9447 18.4574 93.6484 17.5368 93.6484 16.3701V16.1582C93.6484 15.4382 93.7806 14.7979 94.0449 14.2373C94.3092 13.6768 94.6875 13.2415 95.1797 12.9316C95.6764 12.6217 96.262 12.4668 96.9365 12.4668C97.766 12.4668 98.4541 12.7152 99.001 13.2119C99.5524 13.7087 99.8464 14.3535 99.8828 15.1465H98.6865C98.6501 14.668 98.4678 14.276 98.1396 13.9707C97.8161 13.6608 97.415 13.5059 96.9365 13.5059C96.2939 13.5059 95.7949 13.7383 95.4395 14.2031C95.0885 14.6634 94.9131 15.3311 94.9131 16.2061V16.4453C94.9131 17.2975 95.0885 17.9538 95.4395 18.4141C95.7904 18.8743 96.2917 19.1045 96.9434 19.1045ZM104.271 19.1045C104.723 19.1045 105.117 18.9678 105.454 18.6943C105.791 18.4209 105.978 18.0791 106.015 17.6689H107.211C107.188 18.0928 107.042 18.4961 106.773 18.8789C106.505 19.2617 106.145 19.5671 105.693 19.7949C105.247 20.0228 104.773 20.1367 104.271 20.1367C103.264 20.1367 102.462 19.8018 101.865 19.1318C101.273 18.4574 100.977 17.5368 100.977 16.3701V16.1582C100.977 15.4382 101.109 14.7979 101.373 14.2373C101.637 13.6768 102.016 13.2415 102.508 12.9316C103.005 12.6217 103.59 12.4668 104.265 12.4668C105.094 12.4668 105.782 12.7152 106.329 13.2119C106.881 13.7087 107.174 14.3535 107.211 15.1465H106.015C105.978 14.668 105.796 14.276 105.468 13.9707C105.144 13.6608 104.743 13.5059 104.265 13.5059C103.622 13.5059 103.123 13.7383 102.768 14.2031C102.417 14.6634 102.241 15.3311 102.241 16.2061V16.4453C102.241 17.2975 102.417 17.9538 102.768 18.4141C103.118 18.8743 103.62 19.1045 104.271 19.1045Z" fill="white"/>
</svg>
