<svg width="95" height="22" viewBox="0 0 95 22" fill="none" xmlns="http://www.w3.org/2000/svg">
<rect width="95" height="22" fill="#333333"/>
<path d="M11.9746 12.5977H10.4277L9.95898 15H9.12109L9.58984 12.5977H8.18945V11.7949H9.74219L10.1465 9.7207H8.63477V8.90625H10.3047L10.7852 6.46875H11.623L11.1426 8.90625H12.6895L13.1699 6.46875H14.0137L13.5332 8.90625H14.7285V9.7207H13.375L12.9707 11.7949H14.2891V12.5977H12.8184L12.3496 15H11.5059L11.9746 12.5977ZM10.5801 11.7949H12.127L12.5312 9.7207H10.9844L10.5801 11.7949ZM19.3574 13.5645L21.5137 8.66016H22.8672V15H21.7832V10.3887L19.7324 15H18.9824L16.8906 10.2891V15H15.8066V8.66016H17.2129L19.3574 13.5645ZM28.5273 15C28.4648 14.875 28.4141 14.6523 28.375 14.332C27.8711 14.8555 27.2695 15.1172 26.5703 15.1172C25.9453 15.1172 25.4316 14.9414 25.0293 14.5898C24.6309 14.2344 24.4316 13.7852 24.4316 13.2422C24.4316 12.582 24.6816 12.0703 25.1816 11.707C25.6855 11.3398 26.3926 11.1562 27.3027 11.1562H28.3574V10.6582C28.3574 10.2793 28.2441 9.97852 28.0176 9.75586C27.791 9.5293 27.457 9.41602 27.0156 9.41602C26.6289 9.41602 26.3047 9.51367 26.043 9.70898C25.7812 9.9043 25.6504 10.1406 25.6504 10.418H24.5605C24.5605 10.1016 24.6719 9.79688 24.8945 9.50391C25.1211 9.20703 25.4258 8.97266 25.8086 8.80078C26.1953 8.62891 26.6191 8.54297 27.0801 8.54297C27.8105 8.54297 28.3828 8.72656 28.7969 9.09375C29.2109 9.45703 29.4258 9.95898 29.4414 10.5996V13.5176C29.4414 14.0996 29.5156 14.5625 29.6641 14.9062V15H28.5273ZM26.7285 14.1738C27.0684 14.1738 27.3906 14.0859 27.6953 13.9102C28 13.7344 28.2207 13.5059 28.3574 13.2246V11.9238H27.5078C26.1797 11.9238 25.5156 12.3125 25.5156 13.0898C25.5156 13.4297 25.6289 13.6953 25.8555 13.8867C26.082 14.0781 26.373 14.1738 26.7285 14.1738ZM33.6836 14.2324C34.0703 14.2324 34.4082 14.1152 34.6973 13.8809C34.9863 13.6465 35.1465 13.3535 35.1777 13.002H36.2031C36.1836 13.3652 36.0586 13.7109 35.8281 14.0391C35.5977 14.3672 35.2891 14.6289 34.9023 14.8242C34.5195 15.0195 34.1133 15.1172 33.6836 15.1172C32.8203 15.1172 32.1328 14.8301 31.6211 14.2559C31.1133 13.6777 30.8594 12.8887 30.8594 11.8887V11.707C30.8594 11.0898 30.9727 10.541 31.1992 10.0605C31.4258 9.58008 31.75 9.20703 32.1719 8.94141C32.5977 8.67578 33.0996 8.54297 33.6777 8.54297C34.3887 8.54297 34.9785 8.75586 35.4473 9.18164C35.9199 9.60742 36.1719 10.1602 36.2031 10.8398H35.1777C35.1465 10.4297 34.9902 10.0938 34.709 9.83203C34.4316 9.56641 34.0879 9.43359 33.6777 9.43359C33.127 9.43359 32.6992 9.63281 32.3945 10.0312C32.0938 10.4258 31.9434 10.998 31.9434 11.748V11.9531C31.9434 12.6836 32.0938 13.2461 32.3945 13.6406C32.6953 14.0352 33.125 14.2324 33.6836 14.2324ZM42.1328 9.53906H40.0059V15H38.9219V9.53906H36.8359V8.66016H42.1328V9.53906ZM45.3496 15.1172C44.4902 15.1172 43.791 14.8359 43.252 14.2734C42.7129 13.707 42.4434 12.9512 42.4434 12.0059V11.8066C42.4434 11.1777 42.5625 10.6172 42.8008 10.125C43.043 9.62891 43.3789 9.24219 43.8086 8.96484C44.2422 8.68359 44.7109 8.54297 45.2148 8.54297C46.0391 8.54297 46.6797 8.81445 47.1367 9.35742C47.5938 9.90039 47.8223 10.6777 47.8223 11.6895V12.1406H43.5273C43.543 12.7656 43.7246 13.2715 44.0723 13.6582C44.4238 14.041 44.8691 14.2324 45.4082 14.2324C45.791 14.2324 46.1152 14.1543 46.3809 13.998C46.6465 13.8418 46.8789 13.6348 47.0781 13.377L47.7402 13.8926C47.209 14.709 46.4121 15.1172 45.3496 15.1172ZM45.2148 9.43359C44.7773 9.43359 44.4102 9.59375 44.1133 9.91406C43.8164 10.2305 43.6328 10.6758 43.5625 11.25H46.7383V11.168C46.707 10.6172 46.5586 10.1914 46.293 9.89062C46.0273 9.58594 45.668 9.43359 45.2148 9.43359ZM54.4375 11.9004C54.4375 12.8652 54.2168 13.6426 53.7754 14.2324C53.334 14.8223 52.7363 15.1172 51.9824 15.1172C51.2129 15.1172 50.6074 14.873 50.166 14.3848V17.4375H49.082V8.66016H50.0723L50.125 9.36328C50.5664 8.81641 51.1797 8.54297 51.9648 8.54297C52.7266 8.54297 53.3281 8.83008 53.7695 9.4043C54.2148 9.97852 54.4375 10.7773 54.4375 11.8008V11.9004ZM53.3535 11.7773C53.3535 11.0625 53.2012 10.498 52.8965 10.084C52.5918 9.66992 52.1738 9.46289 51.6426 9.46289C50.9863 9.46289 50.4941 9.75391 50.166 10.3359V13.3652C50.4902 13.9434 50.9863 14.2324 51.6543 14.2324C52.1738 14.2324 52.5859 14.0273 52.8906 13.6172C53.1992 13.2031 53.3535 12.5898 53.3535 11.7773ZM57.7949 12.2988H57.0039V15H55.9141V8.66016H57.0039V11.3438H57.7129L59.8457 8.66016H61.1582L58.6504 11.707L61.3691 15H59.9922L57.7949 12.2988ZM67.498 8.66016V15H66.4082V9.55664H64.252L64.123 11.9297C64.0527 13.0195 63.8691 13.7988 63.5723 14.2676C63.2793 14.7363 62.8125 14.9805 62.1719 15H61.7383V14.0449L62.0488 14.0215C62.4004 13.9824 62.6523 13.7793 62.8047 13.4121C62.957 13.0449 63.0547 12.3652 63.0977 11.373L63.2148 8.66016H67.498ZM73.1523 15C73.0898 14.875 73.0391 14.6523 73 14.332C72.4961 14.8555 71.8945 15.1172 71.1953 15.1172C70.5703 15.1172 70.0566 14.9414 69.6543 14.5898C69.2559 14.2344 69.0566 13.7852 69.0566 13.2422C69.0566 12.582 69.3066 12.0703 69.8066 11.707C70.3105 11.3398 71.0176 11.1562 71.9277 11.1562H72.9824V10.6582C72.9824 10.2793 72.8691 9.97852 72.6426 9.75586C72.416 9.5293 72.082 9.41602 71.6406 9.41602C71.2539 9.41602 70.9297 9.51367 70.668 9.70898C70.4062 9.9043 70.2754 10.1406 70.2754 10.418H69.1855C69.1855 10.1016 69.2969 9.79688 69.5195 9.50391C69.7461 9.20703 70.0508 8.97266 70.4336 8.80078C70.8203 8.62891 71.2441 8.54297 71.7051 8.54297C72.4355 8.54297 73.0078 8.72656 73.4219 9.09375C73.8359 9.45703 74.0508 9.95898 74.0664 10.5996V13.5176C74.0664 14.0996 74.1406 14.5625 74.2891 14.9062V15H73.1523ZM71.3535 14.1738C71.6934 14.1738 72.0156 14.0859 72.3203 13.9102C72.625 13.7344 72.8457 13.5059 72.9824 13.2246V11.9238H72.1328C70.8047 11.9238 70.1406 12.3125 70.1406 13.0898C70.1406 13.4297 70.2539 13.6953 70.4805 13.8867C70.707 14.0781 70.998 14.1738 71.3535 14.1738ZM78.3086 14.2324C78.6953 14.2324 79.0332 14.1152 79.3223 13.8809C79.6113 13.6465 79.7715 13.3535 79.8027 13.002H80.8281C80.8086 13.3652 80.6836 13.7109 80.4531 14.0391C80.2227 14.3672 79.9141 14.6289 79.5273 14.8242C79.1445 15.0195 78.7383 15.1172 78.3086 15.1172C77.4453 15.1172 76.7578 14.8301 76.2461 14.2559C75.7383 13.6777 75.4844 12.8887 75.4844 11.8887V11.707C75.4844 11.0898 75.5977 10.541 75.8242 10.0605C76.0508 9.58008 76.375 9.20703 76.7969 8.94141C77.2227 8.67578 77.7246 8.54297 78.3027 8.54297C79.0137 8.54297 79.6035 8.75586 80.0723 9.18164C80.5449 9.60742 80.7969 10.1602 80.8281 10.8398H79.8027C79.7715 10.4297 79.6152 10.0938 79.334 9.83203C79.0566 9.56641 78.7129 9.43359 78.3027 9.43359C77.752 9.43359 77.3242 9.63281 77.0195 10.0312C76.7188 10.4258 76.5684 10.998 76.5684 11.748V11.9531C76.5684 12.6836 76.7188 13.2461 77.0195 13.6406C77.3203 14.0352 77.75 14.2324 78.3086 14.2324ZM84.5898 14.2324C84.9766 14.2324 85.3145 14.1152 85.6035 13.8809C85.8926 13.6465 86.0527 13.3535 86.084 13.002H87.1094C87.0898 13.3652 86.9648 13.7109 86.7344 14.0391C86.5039 14.3672 86.1953 14.6289 85.8086 14.8242C85.4258 15.0195 85.0195 15.1172 84.5898 15.1172C83.7266 15.1172 83.0391 14.8301 82.5273 14.2559C82.0195 13.6777 81.7656 12.8887 81.7656 11.8887V11.707C81.7656 11.0898 81.8789 10.541 82.1055 10.0605C82.332 9.58008 82.6562 9.20703 83.0781 8.94141C83.5039 8.67578 84.0059 8.54297 84.584 8.54297C85.2949 8.54297 85.8848 8.75586 86.3535 9.18164C86.8262 9.60742 87.0781 10.1602 87.1094 10.8398H86.084C86.0527 10.4297 85.8965 10.0938 85.6152 9.83203C85.3379 9.56641 84.9941 9.43359 84.584 9.43359C84.0332 9.43359 83.6055 9.63281 83.3008 10.0312C83 10.4258 82.8496 10.998 82.8496 11.748V11.9531C82.8496 12.6836 83 13.2461 83.3008 13.6406C83.6016 14.0352 84.0312 14.2324 84.5898 14.2324Z" fill="white"/>
</svg>
