<svg width="78" height="22" viewBox="0 0 78 22" fill="none" xmlns="http://www.w3.org/2000/svg">
<rect width="78" height="22" fill="#333333"/>
<path d="M18.7734 12.5977H17.2266L16.7578 15H15.9199L16.3887 12.5977H14.9883V11.7949H16.541L16.9453 9.7207H15.4336V8.90625H17.1035L17.584 6.46875H18.4219L17.9414 8.90625H19.4883L19.9688 6.46875H20.8125L20.332 8.90625H21.5273V9.7207H20.1738L19.7695 11.7949H21.0879V12.5977H19.6172L19.1484 15H18.3047L18.7734 12.5977ZM17.3789 11.7949H18.9258L19.3301 9.7207H17.7832L17.3789 11.7949ZM27.6914 15H26.6074V9.55664H23.6895V15H22.5996V8.66016H27.6914V15ZM32.0625 15.1172C31.2031 15.1172 30.5039 14.8359 29.9648 14.2734C29.4258 13.707 29.1562 12.9512 29.1562 12.0059V11.8066C29.1562 11.1777 29.2754 10.6172 29.5137 10.125C29.7559 9.62891 30.0918 9.24219 30.5215 8.96484C30.9551 8.68359 31.4238 8.54297 31.9277 8.54297C32.752 8.54297 33.3926 8.81445 33.8496 9.35742C34.3066 9.90039 34.5352 10.6777 34.5352 11.6895V12.1406H30.2402C30.2559 12.7656 30.4375 13.2715 30.7852 13.6582C31.1367 14.041 31.582 14.2324 32.1211 14.2324C32.5039 14.2324 32.8281 14.1543 33.0938 13.998C33.3594 13.8418 33.5918 13.6348 33.791 13.377L34.4531 13.8926C33.9219 14.709 33.125 15.1172 32.0625 15.1172ZM31.9277 9.43359C31.4902 9.43359 31.123 9.59375 30.8262 9.91406C30.5293 10.2305 30.3457 10.6758 30.2754 11.25H33.4512V11.168C33.4199 10.6172 33.2715 10.1914 33.0059 9.89062C32.7402 9.58594 32.3809 9.43359 31.9277 9.43359ZM39.8965 8.66016H40.9805V15H39.8965V10.377L36.9727 15H35.8887V8.66016H36.9727V13.2891L39.8965 8.66016ZM40.1895 6.35156C40.1895 6.82422 40.0273 7.20508 39.7031 7.49414C39.3828 7.7793 38.9609 7.92188 38.4375 7.92188C37.9141 7.92188 37.4902 7.77734 37.166 7.48828C36.8418 7.19922 36.6797 6.82031 36.6797 6.35156H37.5645C37.5645 6.625 37.6387 6.83984 37.7871 6.99609C37.9355 7.14844 38.1523 7.22461 38.4375 7.22461C38.7109 7.22461 38.9238 7.14844 39.0762 6.99609C39.2324 6.84375 39.3105 6.62891 39.3105 6.35156H40.1895ZM46.207 10.3945C46.207 10.0977 46.0938 9.86328 45.8672 9.69141C45.6406 9.51562 45.3301 9.42773 44.9355 9.42773C44.5527 9.42773 44.2324 9.52734 43.9746 9.72656C43.7207 9.92578 43.5938 10.1602 43.5938 10.4297H42.5156C42.5156 9.87891 42.7461 9.42773 43.207 9.07617C43.668 8.72461 44.2441 8.54883 44.9355 8.54883C45.6777 8.54883 46.2559 8.70898 46.6699 9.0293C47.084 9.3457 47.291 9.79883 47.291 10.3887C47.291 10.6738 47.2051 10.9355 47.0332 11.1738C46.8613 11.4121 46.6172 11.6016 46.3008 11.7422C47.0391 11.9922 47.4082 12.4844 47.4082 13.2188C47.4082 13.8008 47.1836 14.2617 46.7344 14.6016C46.2852 14.9414 45.6855 15.1113 44.9355 15.1113C44.2051 15.1113 43.6016 14.9336 43.125 14.5781C42.6523 14.2188 42.416 13.7344 42.416 13.125H43.4941C43.4941 13.4336 43.6309 13.6992 43.9043 13.9219C44.1816 14.1406 44.5254 14.25 44.9355 14.25C45.3496 14.25 45.6836 14.1543 45.9375 13.9629C46.1914 13.7715 46.3184 13.5234 46.3184 13.2188C46.3184 12.8633 46.2109 12.6094 45.9961 12.457C45.7852 12.3008 45.4551 12.2227 45.0059 12.2227H43.9219V11.3086H45.0996C45.8379 11.2891 46.207 10.9844 46.207 10.3945ZM52.7285 15C52.666 14.875 52.6152 14.6523 52.5762 14.332C52.0723 14.8555 51.4707 15.1172 50.7715 15.1172C50.1465 15.1172 49.6328 14.9414 49.2305 14.5898C48.832 14.2344 48.6328 13.7852 48.6328 13.2422C48.6328 12.582 48.8828 12.0703 49.3828 11.707C49.8867 11.3398 50.5938 11.1562 51.5039 11.1562H52.5586V10.6582C52.5586 10.2793 52.4453 9.97852 52.2188 9.75586C51.9922 9.5293 51.6582 9.41602 51.2168 9.41602C50.8301 9.41602 50.5059 9.51367 50.2441 9.70898C49.9824 9.9043 49.8516 10.1406 49.8516 10.418H48.7617C48.7617 10.1016 48.873 9.79688 49.0957 9.50391C49.3223 9.20703 49.627 8.97266 50.0098 8.80078C50.3965 8.62891 50.8203 8.54297 51.2812 8.54297C52.0117 8.54297 52.584 8.72656 52.998 9.09375C53.4121 9.45703 53.627 9.95898 53.6426 10.5996V13.5176C53.6426 14.0996 53.7168 14.5625 53.8652 14.9062V15H52.7285ZM50.9297 14.1738C51.2695 14.1738 51.5918 14.0859 51.8965 13.9102C52.2012 13.7344 52.4219 13.5059 52.5586 13.2246V11.9238H51.709C50.3809 11.9238 49.7168 12.3125 49.7168 13.0898C49.7168 13.4297 49.8301 13.6953 50.0566 13.8867C50.2832 14.0781 50.5742 14.1738 50.9297 14.1738ZM60.3984 12.2461H59.6367V15H58.5527V12.2461H57.791L56.0156 15H54.6445L56.9121 11.7188L54.8613 8.66016H56.1738L57.8086 11.2852H58.5527V8.66016H59.6367V11.2852H60.375L62.0215 8.66016H63.334L61.2773 11.7246L63.5449 15H62.1738L60.3984 12.2461Z" fill="white"/>
</svg>
