<svg width="84" height="22" viewBox="0 0 84 22" fill="none" xmlns="http://www.w3.org/2000/svg">
<rect width="84" height="22" fill="#333333"/>
<path d="M18.668 12.5977H17.1211L16.6523 15H15.8145L16.2832 12.5977H14.8828V11.7949H16.4355L16.8398 9.7207H15.3281V8.90625H16.998L17.4785 6.46875H18.3164L17.8359 8.90625H19.3828L19.8633 6.46875H20.707L20.2266 8.90625H21.4219V9.7207H20.0684L19.6641 11.7949H20.9824V12.5977H19.5117L19.043 15H18.1992L18.668 12.5977ZM17.2734 11.7949H18.8203L19.2246 9.7207H17.6777L17.2734 11.7949ZM27.5859 15H26.502V9.55664H23.584V15H22.4941V8.66016H27.5859V15ZM34.6816 11.9004C34.6816 12.8652 34.4609 13.6426 34.0195 14.2324C33.5781 14.8223 32.9805 15.1172 32.2266 15.1172C31.457 15.1172 30.8516 14.873 30.4102 14.3848V17.4375H29.3262V8.66016H30.3164L30.3691 9.36328C30.8105 8.81641 31.4238 8.54297 32.209 8.54297C32.9707 8.54297 33.5723 8.83008 34.0137 9.4043C34.459 9.97852 34.6816 10.7773 34.6816 11.8008V11.9004ZM33.5977 11.7773C33.5977 11.0625 33.4453 10.498 33.1406 10.084C32.8359 9.66992 32.418 9.46289 31.8867 9.46289C31.2305 9.46289 30.7383 9.75391 30.4102 10.3359V13.3652C30.7344 13.9434 31.2305 14.2324 31.8984 14.2324C32.418 14.2324 32.8301 14.0273 33.1348 13.6172C33.4434 13.2031 33.5977 12.5898 33.5977 11.7773ZM38.6953 15.1172C37.8359 15.1172 37.1367 14.8359 36.5977 14.2734C36.0586 13.707 35.7891 12.9512 35.7891 12.0059V11.8066C35.7891 11.1777 35.9082 10.6172 36.1465 10.125C36.3887 9.62891 36.7246 9.24219 37.1543 8.96484C37.5879 8.68359 38.0566 8.54297 38.5605 8.54297C39.3848 8.54297 40.0254 8.81445 40.4824 9.35742C40.9395 9.90039 41.168 10.6777 41.168 11.6895V12.1406H36.873C36.8887 12.7656 37.0703 13.2715 37.418 13.6582C37.7695 14.041 38.2148 14.2324 38.7539 14.2324C39.1367 14.2324 39.4609 14.1543 39.7266 13.998C39.9922 13.8418 40.2246 13.6348 40.4238 13.377L41.0859 13.8926C40.5547 14.709 39.7578 15.1172 38.6953 15.1172ZM38.5605 9.43359C38.123 9.43359 37.7559 9.59375 37.459 9.91406C37.1621 10.2305 36.9785 10.6758 36.9082 11.25H40.084V11.168C40.0527 10.6172 39.9043 10.1914 39.6387 9.89062C39.373 9.58594 39.0137 9.43359 38.5605 9.43359ZM42.375 14.1152L42.75 13.6523C43.1719 13.1055 43.4121 12.2852 43.4707 11.1914L43.5703 8.66016H47.6543V14.1152H48.4688V16.8633H47.3848V15H42.9609V16.8633H41.877L41.8828 14.1152H42.375ZM43.6582 14.1152H46.5703V9.66211H44.6191L44.5547 11.1738C44.4883 12.4355 44.1895 13.416 43.6582 14.1152ZM53.3203 13.5645L55.4766 8.66016H56.8301V15H55.7461V10.3887L53.6953 15H52.9453L50.8535 10.2891V15H49.7695V8.66016H51.1758L53.3203 13.5645ZM61.207 15.1172C60.3477 15.1172 59.6484 14.8359 59.1094 14.2734C58.5703 13.707 58.3008 12.9512 58.3008 12.0059V11.8066C58.3008 11.1777 58.4199 10.6172 58.6582 10.125C58.9004 9.62891 59.2363 9.24219 59.666 8.96484C60.0996 8.68359 60.5684 8.54297 61.0723 8.54297C61.8965 8.54297 62.5371 8.81445 62.9941 9.35742C63.4512 9.90039 63.6797 10.6777 63.6797 11.6895V12.1406H59.3848C59.4004 12.7656 59.582 13.2715 59.9297 13.6582C60.2812 14.041 60.7266 14.2324 61.2656 14.2324C61.6484 14.2324 61.9727 14.1543 62.2383 13.998C62.5039 13.8418 62.7363 13.6348 62.9355 13.377L63.5977 13.8926C63.0664 14.709 62.2695 15.1172 61.207 15.1172ZM61.0723 9.43359C60.6348 9.43359 60.2676 9.59375 59.9707 9.91406C59.6738 10.2305 59.4902 10.6758 59.4199 11.25H62.5957V11.168C62.5645 10.6172 62.416 10.1914 62.1504 9.89062C61.8848 9.58594 61.5254 9.43359 61.0723 9.43359ZM69.5801 9.53906H67.4531V15H66.3691V9.53906H64.2832V8.66016H69.5801V9.53906Z" fill="white"/>
</svg>
