<svg width="126" height="22" viewBox="0 0 126 22" fill="none" xmlns="http://www.w3.org/2000/svg">
<rect width="126" height="22" fill="#333333"/>
<path d="M17.8828 12.5977H16.3359L15.8672 15H15.0293L15.498 12.5977H14.0977V11.7949H15.6504L16.0547 9.7207H14.543V8.90625H16.2129L16.6934 6.46875H17.5312L17.0508 8.90625H18.5977L19.0781 6.46875H19.9219L19.4414 8.90625H20.6367V9.7207H19.2832L18.8789 11.7949H20.1973V12.5977H18.7266L18.2578 15H17.4141L17.8828 12.5977ZM16.4883 11.7949H18.0352L18.4395 9.7207H16.8926L16.4883 11.7949ZM26.8008 15H25.7168V9.55664H22.7988V15H21.709V8.66016H26.8008V15ZM33.8965 11.9004C33.8965 12.8652 33.6758 13.6426 33.2344 14.2324C32.793 14.8223 32.1953 15.1172 31.4414 15.1172C30.6719 15.1172 30.0664 14.873 29.625 14.3848V17.4375H28.541V8.66016H29.5312L29.584 9.36328C30.0254 8.81641 30.6387 8.54297 31.4238 8.54297C32.1855 8.54297 32.7871 8.83008 33.2285 9.4043C33.6738 9.97852 33.8965 10.7773 33.8965 11.8008V11.9004ZM32.8125 11.7773C32.8125 11.0625 32.6602 10.498 32.3555 10.084C32.0508 9.66992 31.6328 9.46289 31.1016 9.46289C30.4453 9.46289 29.9531 9.75391 29.625 10.3359V13.3652C29.9492 13.9434 30.4453 14.2324 31.1133 14.2324C31.6328 14.2324 32.0449 14.0273 32.3496 13.6172C32.6582 13.2031 32.8125 12.5898 32.8125 11.7773ZM34.9922 11.7715C34.9922 11.1504 35.1133 10.5918 35.3555 10.0957C35.6016 9.59961 35.9414 9.2168 36.375 8.94727C36.8125 8.67773 37.3105 8.54297 37.8691 8.54297C38.7324 8.54297 39.4297 8.8418 39.9609 9.43945C40.4961 10.0371 40.7637 10.832 40.7637 11.8242V11.9004C40.7637 12.5176 40.6445 13.0723 40.4062 13.5645C40.1719 14.0527 39.834 14.4336 39.3926 14.707C38.9551 14.9805 38.4512 15.1172 37.8809 15.1172C37.0215 15.1172 36.3242 14.8184 35.7891 14.2207C35.2578 13.623 34.9922 12.832 34.9922 11.8477V11.7715ZM36.082 11.9004C36.082 12.6035 36.2441 13.168 36.5684 13.5938C36.8965 14.0195 37.334 14.2324 37.8809 14.2324C38.4316 14.2324 38.8691 14.0176 39.1934 13.5879C39.5176 13.1543 39.6797 12.5488 39.6797 11.7715C39.6797 11.0762 39.5137 10.5137 39.1816 10.084C38.8535 9.65039 38.416 9.43359 37.8691 9.43359C37.334 9.43359 36.9023 9.64648 36.5742 10.0723C36.2461 10.498 36.082 11.1074 36.082 11.9004ZM44.7539 15.1172C43.8945 15.1172 43.1953 14.8359 42.6562 14.2734C42.1172 13.707 41.8477 12.9512 41.8477 12.0059V11.8066C41.8477 11.1777 41.9668 10.6172 42.2051 10.125C42.4473 9.62891 42.7832 9.24219 43.2129 8.96484C43.6465 8.68359 44.1152 8.54297 44.6191 8.54297C45.4434 8.54297 46.084 8.81445 46.541 9.35742C46.998 9.90039 47.2266 10.6777 47.2266 11.6895V12.1406H42.9316C42.9473 12.7656 43.1289 13.2715 43.4766 13.6582C43.8281 14.041 44.2734 14.2324 44.8125 14.2324C45.1953 14.2324 45.5195 14.1543 45.7852 13.998C46.0508 13.8418 46.2832 13.6348 46.4824 13.377L47.1445 13.8926C46.6133 14.709 45.8164 15.1172 44.7539 15.1172ZM44.6191 9.43359C44.1816 9.43359 43.8145 9.59375 43.5176 9.91406C43.2207 10.2305 43.0371 10.6758 42.9668 11.25H46.1426V11.168C46.1113 10.6172 45.9629 10.1914 45.6973 9.89062C45.4316 9.58594 45.0723 9.43359 44.6191 9.43359ZM50.4609 12.2988H49.6699V15H48.5801V8.66016H49.6699V11.3438H50.3789L52.5117 8.66016H53.8242L51.3164 11.707L54.0352 15H52.6582L50.4609 12.2988ZM59.6777 9.53906H57.5508V15H56.4668V9.53906H54.3809V8.66016H59.6777V9.53906ZM64.2188 10.3945C64.2188 10.0977 64.1055 9.86328 63.8789 9.69141C63.6523 9.51562 63.3418 9.42773 62.9473 9.42773C62.5645 9.42773 62.2441 9.52734 61.9863 9.72656C61.7324 9.92578 61.6055 10.1602 61.6055 10.4297H60.5273C60.5273 9.87891 60.7578 9.42773 61.2188 9.07617C61.6797 8.72461 62.2559 8.54883 62.9473 8.54883C63.6895 8.54883 64.2676 8.70898 64.6816 9.0293C65.0957 9.3457 65.3027 9.79883 65.3027 10.3887C65.3027 10.6738 65.2168 10.9355 65.0449 11.1738C64.873 11.4121 64.6289 11.6016 64.3125 11.7422C65.0508 11.9922 65.4199 12.4844 65.4199 13.2188C65.4199 13.8008 65.1953 14.2617 64.7461 14.6016C64.2969 14.9414 63.6973 15.1113 62.9473 15.1113C62.2168 15.1113 61.6133 14.9336 61.1367 14.5781C60.6641 14.2188 60.4277 13.7344 60.4277 13.125H61.5059C61.5059 13.4336 61.6426 13.6992 61.916 13.9219C62.1934 14.1406 62.5371 14.25 62.9473 14.25C63.3613 14.25 63.6953 14.1543 63.9492 13.9629C64.2031 13.7715 64.3301 13.5234 64.3301 13.2188C64.3301 12.8633 64.2227 12.6094 64.0078 12.457C63.7969 12.3008 63.4668 12.2227 63.0176 12.2227H61.9336V11.3086H63.1113C63.8496 11.2891 64.2188 10.9844 64.2188 10.3945ZM70.7402 15C70.6777 14.875 70.627 14.6523 70.5879 14.332C70.084 14.8555 69.4824 15.1172 68.7832 15.1172C68.1582 15.1172 67.6445 14.9414 67.2422 14.5898C66.8438 14.2344 66.6445 13.7852 66.6445 13.2422C66.6445 12.582 66.8945 12.0703 67.3945 11.707C67.8984 11.3398 68.6055 11.1562 69.5156 11.1562H70.5703V10.6582C70.5703 10.2793 70.457 9.97852 70.2305 9.75586C70.0039 9.5293 69.6699 9.41602 69.2285 9.41602C68.8418 9.41602 68.5176 9.51367 68.2559 9.70898C67.9941 9.9043 67.8633 10.1406 67.8633 10.418H66.7734C66.7734 10.1016 66.8848 9.79688 67.1074 9.50391C67.334 9.20703 67.6387 8.97266 68.0215 8.80078C68.4082 8.62891 68.832 8.54297 69.293 8.54297C70.0234 8.54297 70.5957 8.72656 71.0098 9.09375C71.4238 9.45703 71.6387 9.95898 71.6543 10.5996V13.5176C71.6543 14.0996 71.7285 14.5625 71.877 14.9062V15H70.7402ZM68.9414 14.1738C69.2812 14.1738 69.6035 14.0859 69.9082 13.9102C70.2129 13.7344 70.4336 13.5059 70.5703 13.2246V11.9238H69.7207C68.3926 11.9238 67.7285 12.3125 67.7285 13.0898C67.7285 13.4297 67.8418 13.6953 68.0684 13.8867C68.2949 14.0781 68.5859 14.1738 68.9414 14.1738ZM76.1367 9.02344C76.9336 9.02344 77.5703 9.29102 78.0469 9.82617C78.5273 10.3574 78.7676 11.0586 78.7676 11.9297V12.0293C78.7676 12.627 78.6523 13.1621 78.4219 13.6348C78.1914 14.1035 77.8594 14.4688 77.4258 14.7305C76.9961 14.9883 76.5 15.1172 75.9375 15.1172C75.0859 15.1172 74.4004 14.834 73.8809 14.2676C73.3613 13.6973 73.1016 12.9336 73.1016 11.9766V11.4492C73.1016 10.1172 73.3477 9.05859 73.8398 8.27344C74.3359 7.48828 75.0664 7.00977 76.0312 6.83789C76.5781 6.74023 76.9473 6.62109 77.1387 6.48047C77.3301 6.33984 77.4258 6.14648 77.4258 5.90039H78.3164C78.3164 6.38867 78.2051 6.76953 77.9824 7.04297C77.7637 7.31641 77.4121 7.50977 76.9277 7.62305L76.1191 7.80469C75.4746 7.95703 74.9902 8.21484 74.666 8.57812C74.3457 8.9375 74.1367 9.41797 74.0391 10.0195C74.6133 9.35547 75.3125 9.02344 76.1367 9.02344ZM75.9258 9.91406C75.3945 9.91406 74.9727 10.0938 74.6602 10.4531C74.3477 10.8086 74.1914 11.3027 74.1914 11.9355V12.0293C74.1914 12.709 74.3477 13.248 74.6602 13.6465C74.9766 14.041 75.4023 14.2383 75.9375 14.2383C76.4766 14.2383 76.9023 14.0391 77.2148 13.6406C77.5273 13.2422 77.6836 12.6602 77.6836 11.8945C77.6836 11.2969 77.5254 10.8184 77.209 10.459C76.8965 10.0957 76.4688 9.91406 75.9258 9.91406ZM80.0859 15V8.66016H82.5586C83.4023 8.66016 84.0488 8.80859 84.498 9.10547C84.9512 9.39844 85.1777 9.83008 85.1777 10.4004C85.1777 10.6934 85.0898 10.959 84.9141 11.1973C84.7383 11.4316 84.4785 11.6113 84.1348 11.7363C84.5176 11.8262 84.8242 12.002 85.0547 12.2637C85.2891 12.5254 85.4062 12.8379 85.4062 13.2012C85.4062 13.7832 85.1914 14.2285 84.7617 14.5371C84.3359 14.8457 83.7324 15 82.9512 15H80.0859ZM81.1699 12.2168V14.127H82.9629C83.416 14.127 83.7539 14.043 83.9766 13.875C84.2031 13.707 84.3164 13.4707 84.3164 13.166C84.3164 12.5332 83.8516 12.2168 82.9219 12.2168H81.1699ZM81.1699 11.3496H82.5703C83.5859 11.3496 84.0938 11.0527 84.0938 10.459C84.0938 9.86523 83.6133 9.55859 82.6523 9.53906H81.1699V11.3496ZM89.4727 15.1172C88.6133 15.1172 87.9141 14.8359 87.375 14.2734C86.8359 13.707 86.5664 12.9512 86.5664 12.0059V11.8066C86.5664 11.1777 86.6855 10.6172 86.9238 10.125C87.166 9.62891 87.502 9.24219 87.9316 8.96484C88.3652 8.68359 88.834 8.54297 89.3379 8.54297C90.1621 8.54297 90.8027 8.81445 91.2598 9.35742C91.7168 9.90039 91.9453 10.6777 91.9453 11.6895V12.1406H87.6504C87.666 12.7656 87.8477 13.2715 88.1953 13.6582C88.5469 14.041 88.9922 14.2324 89.5312 14.2324C89.9141 14.2324 90.2383 14.1543 90.5039 13.998C90.7695 13.8418 91.002 13.6348 91.2012 13.377L91.8633 13.8926C91.332 14.709 90.5352 15.1172 89.4727 15.1172ZM89.3379 9.43359C88.9004 9.43359 88.5332 9.59375 88.2363 9.91406C87.9395 10.2305 87.7559 10.6758 87.6855 11.25H90.8613V11.168C90.8301 10.6172 90.6816 10.1914 90.416 9.89062C90.1504 9.58594 89.791 9.43359 89.3379 9.43359ZM98.3848 15H97.3008V12.293H94.3887V15H93.2988V8.66016H94.3887V11.4082H97.3008V8.66016H98.3848V15ZM104.232 8.66016H105.316V15H104.232V10.377L101.309 15H100.225V8.66016H101.309V13.2891L104.232 8.66016ZM109.688 15.1172C108.828 15.1172 108.129 14.8359 107.59 14.2734C107.051 13.707 106.781 12.9512 106.781 12.0059V11.8066C106.781 11.1777 106.9 10.6172 107.139 10.125C107.381 9.62891 107.717 9.24219 108.146 8.96484C108.58 8.68359 109.049 8.54297 109.553 8.54297C110.377 8.54297 111.018 8.81445 111.475 9.35742C111.932 9.90039 112.16 10.6777 112.16 11.6895V12.1406H107.865C107.881 12.7656 108.062 13.2715 108.41 13.6582C108.762 14.041 109.207 14.2324 109.746 14.2324C110.129 14.2324 110.453 14.1543 110.719 13.998C110.984 13.8418 111.217 13.6348 111.416 13.377L112.078 13.8926C111.547 14.709 110.75 15.1172 109.688 15.1172ZM109.553 9.43359C109.115 9.43359 108.748 9.59375 108.451 9.91406C108.154 10.2305 107.971 10.6758 107.9 11.25H111.076V11.168C111.045 10.6172 110.896 10.1914 110.631 9.89062C110.365 9.58594 110.006 9.43359 109.553 9.43359Z" fill="white"/>
</svg>
