<svg width="144" height="28" viewBox="0 0 144 28" fill="none" xmlns="http://www.w3.org/2000/svg">
<rect width="144" height="28" fill="#333333"/>
<path d="M19.3633 16.1973H17.5586L17.0117 19H16.0342L16.5811 16.1973H14.9473V15.2607H16.7588L17.2305 12.8408H15.4668V11.8906H17.415L17.9756 9.04688H18.9531L18.3926 11.8906H20.1973L20.7578 9.04688H21.7422L21.1816 11.8906H22.5762V12.8408H20.9971L20.5254 15.2607H22.0635V16.1973H20.3477L19.8008 19H18.8164L19.3633 16.1973ZM17.7363 15.2607H19.541L20.0127 12.8408H18.208L17.7363 15.2607ZM29.7676 19H28.5029V12.6494H25.0986V19H23.8271V11.6035H29.7676V19ZM38.0459 15.3838C38.0459 16.5094 37.7884 17.4163 37.2734 18.1045C36.7585 18.7926 36.0612 19.1367 35.1816 19.1367C34.2839 19.1367 33.5775 18.8519 33.0625 18.2822V21.8438H31.7979V11.6035H32.9531L33.0146 12.4238C33.5296 11.7858 34.2451 11.4668 35.1611 11.4668C36.0498 11.4668 36.7516 11.8018 37.2666 12.4717C37.7861 13.1416 38.0459 14.0736 38.0459 15.2676V15.3838ZM36.7812 15.2402C36.7812 14.4062 36.6035 13.7477 36.248 13.2646C35.8926 12.7816 35.4049 12.54 34.7852 12.54C34.0195 12.54 33.4453 12.8796 33.0625 13.5586V17.0928C33.4408 17.7673 34.0195 18.1045 34.7988 18.1045C35.4049 18.1045 35.8857 17.8652 36.2412 17.3867C36.6012 16.9036 36.7812 16.1882 36.7812 15.2402ZM39.3242 15.2334C39.3242 14.5088 39.4655 13.8571 39.748 13.2783C40.0352 12.6995 40.4316 12.2529 40.9375 11.9385C41.4479 11.624 42.029 11.4668 42.6807 11.4668C43.6878 11.4668 44.5013 11.8154 45.1211 12.5127C45.7454 13.21 46.0576 14.1374 46.0576 15.2949V15.3838C46.0576 16.1038 45.9186 16.751 45.6406 17.3252C45.3672 17.8949 44.973 18.3392 44.458 18.6582C43.9476 18.9772 43.3597 19.1367 42.6943 19.1367C41.6917 19.1367 40.8783 18.7881 40.2539 18.0908C39.6341 17.3936 39.3242 16.4707 39.3242 15.3223V15.2334ZM40.5957 15.3838C40.5957 16.2041 40.7848 16.8626 41.1631 17.3594C41.5459 17.8561 42.0563 18.1045 42.6943 18.1045C43.3369 18.1045 43.8473 17.8538 44.2256 17.3525C44.6038 16.8467 44.793 16.1403 44.793 15.2334C44.793 14.4222 44.5993 13.766 44.2119 13.2646C43.8291 12.7588 43.3187 12.5059 42.6807 12.5059C42.0563 12.5059 41.5527 12.7542 41.1699 13.251C40.7871 13.7477 40.5957 14.4587 40.5957 15.3838ZM50.7129 19.1367C49.7103 19.1367 48.8945 18.8086 48.2656 18.1523C47.6367 17.4915 47.3223 16.6097 47.3223 15.5068V15.2744C47.3223 14.5407 47.4613 13.8867 47.7393 13.3125C48.0218 12.7337 48.4137 12.2826 48.915 11.959C49.4209 11.6309 49.9678 11.4668 50.5557 11.4668C51.5173 11.4668 52.2646 11.7835 52.7979 12.417C53.3311 13.0505 53.5977 13.9574 53.5977 15.1377V15.6641H48.5869C48.6051 16.3932 48.8171 16.9834 49.2227 17.4346C49.6328 17.8812 50.1523 18.1045 50.7812 18.1045C51.2279 18.1045 51.6061 18.0133 51.916 17.8311C52.2259 17.6488 52.4971 17.4072 52.7295 17.1064L53.502 17.708C52.8822 18.6605 51.9525 19.1367 50.7129 19.1367ZM50.5557 12.5059C50.0452 12.5059 49.6169 12.6927 49.2705 13.0664C48.9242 13.4355 48.71 13.9551 48.6279 14.625H52.333V14.5293C52.2965 13.8867 52.1234 13.39 51.8135 13.0391C51.5036 12.6836 51.0843 12.5059 50.5557 12.5059ZM57.3711 15.8486H56.4482V19H55.1768V11.6035H56.4482V14.7344H57.2754L59.7637 11.6035H61.2949L58.3691 15.1582L61.541 19H59.9346L57.3711 15.8486ZM68.124 12.6289H65.6426V19H64.3779V12.6289H61.9443V11.6035H68.124V12.6289ZM73.4219 13.627C73.4219 13.2806 73.2897 13.0072 73.0254 12.8066C72.7611 12.6016 72.3988 12.499 71.9385 12.499C71.4919 12.499 71.1182 12.6152 70.8174 12.8477C70.5212 13.0801 70.373 13.3535 70.373 13.668H69.1152C69.1152 13.0254 69.3841 12.499 69.9219 12.0889C70.4596 11.6787 71.1318 11.4736 71.9385 11.4736C72.8044 11.4736 73.4788 11.6605 73.9619 12.0342C74.445 12.4033 74.6865 12.932 74.6865 13.6201C74.6865 13.9528 74.5863 14.2581 74.3857 14.5361C74.1852 14.8141 73.9004 15.0352 73.5312 15.1992C74.3926 15.4909 74.8232 16.0651 74.8232 16.9219C74.8232 17.6009 74.5612 18.1387 74.0371 18.5352C73.513 18.9316 72.8135 19.1299 71.9385 19.1299C71.0863 19.1299 70.3822 18.9225 69.8262 18.5078C69.2747 18.0885 68.999 17.5234 68.999 16.8125H70.2568C70.2568 17.1725 70.4163 17.4824 70.7354 17.7422C71.0589 17.9974 71.46 18.125 71.9385 18.125C72.4215 18.125 72.8112 18.0133 73.1074 17.79C73.4036 17.5667 73.5518 17.2773 73.5518 16.9219C73.5518 16.5072 73.4264 16.2109 73.1758 16.0332C72.9297 15.8509 72.5446 15.7598 72.0205 15.7598H70.7559V14.6934H72.1299C72.9912 14.6706 73.4219 14.3151 73.4219 13.627ZM81.0303 19C80.9574 18.8542 80.8981 18.5944 80.8525 18.2207C80.2646 18.8314 79.5628 19.1367 78.7471 19.1367C78.0179 19.1367 77.4186 18.9316 76.9492 18.5215C76.4844 18.1068 76.252 17.5827 76.252 16.9492C76.252 16.179 76.5436 15.582 77.127 15.1582C77.7148 14.7298 78.5397 14.5156 79.6016 14.5156H80.832V13.9346C80.832 13.4925 80.6999 13.1416 80.4355 12.8818C80.1712 12.6175 79.7816 12.4854 79.2666 12.4854C78.8154 12.4854 78.4372 12.5993 78.1318 12.8271C77.8265 13.055 77.6738 13.3307 77.6738 13.6543H76.4023C76.4023 13.2852 76.5322 12.9297 76.792 12.5879C77.0563 12.2415 77.4118 11.9681 77.8584 11.7676C78.3096 11.5671 78.804 11.4668 79.3418 11.4668C80.194 11.4668 80.8617 11.681 81.3447 12.1094C81.8278 12.5332 82.0785 13.1188 82.0967 13.8662V17.2705C82.0967 17.9495 82.1833 18.4896 82.3564 18.8906V19H81.0303ZM78.9316 18.0361C79.3281 18.0361 79.7041 17.9336 80.0596 17.7285C80.415 17.5234 80.6725 17.2568 80.832 16.9287V15.4111H79.8408C78.2913 15.4111 77.5166 15.8646 77.5166 16.7715C77.5166 17.168 77.6488 17.4779 77.9131 17.7012C78.1774 17.9245 78.5169 18.0361 78.9316 18.0361ZM87.3262 12.0273C88.2559 12.0273 88.9987 12.3395 89.5547 12.9639C90.1152 13.5837 90.3955 14.4017 90.3955 15.418V15.5342C90.3955 16.2314 90.2611 16.8558 89.9922 17.4072C89.7233 17.9541 89.3359 18.3802 88.8301 18.6855C88.3288 18.9863 87.75 19.1367 87.0938 19.1367C86.1003 19.1367 85.3005 18.8063 84.6943 18.1455C84.0882 17.4801 83.7852 16.5892 83.7852 15.4727V14.8574C83.7852 13.3034 84.0723 12.0684 84.6465 11.1523C85.2253 10.2363 86.0775 9.67806 87.2031 9.47754C87.8411 9.36361 88.2718 9.22461 88.4951 9.06055C88.7184 8.89648 88.8301 8.6709 88.8301 8.38379H89.8691C89.8691 8.95345 89.7393 9.39779 89.4795 9.7168C89.2243 10.0358 88.8141 10.2614 88.249 10.3936L87.3057 10.6055C86.5537 10.7832 85.9886 11.084 85.6104 11.5078C85.2367 11.9271 84.9928 12.4876 84.8789 13.1895C85.5488 12.4147 86.3646 12.0273 87.3262 12.0273ZM87.0801 13.0664C86.4603 13.0664 85.9681 13.276 85.6035 13.6953C85.2389 14.11 85.0566 14.6865 85.0566 15.4248V15.5342C85.0566 16.3271 85.2389 16.9561 85.6035 17.4209C85.9727 17.8812 86.4694 18.1113 87.0938 18.1113C87.7227 18.1113 88.2194 17.8789 88.584 17.4141C88.9486 16.9492 89.1309 16.2702 89.1309 15.377C89.1309 14.6797 88.9463 14.1214 88.5771 13.7021C88.2126 13.2783 87.7135 13.0664 87.0801 13.0664ZM91.9336 19V11.6035H94.8184C95.8027 11.6035 96.557 11.7767 97.0811 12.123C97.6097 12.4648 97.874 12.9684 97.874 13.6338C97.874 13.9756 97.7715 14.2855 97.5664 14.5635C97.3613 14.8369 97.0583 15.0465 96.6572 15.1924C97.1038 15.2972 97.4616 15.5023 97.7305 15.8076C98.0039 16.113 98.1406 16.4775 98.1406 16.9014C98.1406 17.5804 97.89 18.0999 97.3887 18.46C96.8919 18.82 96.1878 19 95.2764 19H91.9336ZM93.1982 15.7529V17.9814H95.29C95.8187 17.9814 96.2129 17.8835 96.4727 17.6875C96.737 17.4915 96.8691 17.2158 96.8691 16.8604C96.8691 16.1221 96.3268 15.7529 95.2422 15.7529H93.1982ZM93.1982 14.7412H94.832C96.0169 14.7412 96.6094 14.3949 96.6094 13.7021C96.6094 13.0094 96.0488 12.6517 94.9277 12.6289H93.1982V14.7412ZM102.885 19.1367C101.882 19.1367 101.066 18.8086 100.438 18.1523C99.8086 17.4915 99.4941 16.6097 99.4941 15.5068V15.2744C99.4941 14.5407 99.6331 13.8867 99.9111 13.3125C100.194 12.7337 100.586 12.2826 101.087 11.959C101.593 11.6309 102.14 11.4668 102.728 11.4668C103.689 11.4668 104.437 11.7835 104.97 12.417C105.503 13.0505 105.77 13.9574 105.77 15.1377V15.6641H100.759C100.777 16.3932 100.989 16.9834 101.395 17.4346C101.805 17.8812 102.324 18.1045 102.953 18.1045C103.4 18.1045 103.778 18.0133 104.088 17.8311C104.398 17.6488 104.669 17.4072 104.901 17.1064L105.674 17.708C105.054 18.6605 104.124 19.1367 102.885 19.1367ZM102.728 12.5059C102.217 12.5059 101.789 12.6927 101.442 13.0664C101.096 13.4355 100.882 13.9551 100.8 14.625H104.505V14.5293C104.468 13.8867 104.295 13.39 103.985 13.0391C103.675 12.6836 103.256 12.5059 102.728 12.5059ZM113.282 19H112.018V15.8418H108.62V19H107.349V11.6035H108.62V14.8096H112.018V11.6035H113.282V19ZM120.104 11.6035H121.369V19H120.104V13.6064L116.693 19H115.429V11.6035H116.693V17.0039L120.104 11.6035ZM126.469 19.1367C125.466 19.1367 124.65 18.8086 124.021 18.1523C123.393 17.4915 123.078 16.6097 123.078 15.5068V15.2744C123.078 14.5407 123.217 13.8867 123.495 13.3125C123.778 12.7337 124.17 12.2826 124.671 11.959C125.177 11.6309 125.724 11.4668 126.312 11.4668C127.273 11.4668 128.021 11.7835 128.554 12.417C129.087 13.0505 129.354 13.9574 129.354 15.1377V15.6641H124.343C124.361 16.3932 124.573 16.9834 124.979 17.4346C125.389 17.8812 125.908 18.1045 126.537 18.1045C126.984 18.1045 127.362 18.0133 127.672 17.8311C127.982 17.6488 128.253 17.4072 128.485 17.1064L129.258 17.708C128.638 18.6605 127.708 19.1367 126.469 19.1367ZM126.312 12.5059C125.801 12.5059 125.373 12.6927 125.026 13.0664C124.68 13.4355 124.466 13.9551 124.384 14.625H128.089V14.5293C128.052 13.8867 127.879 13.39 127.569 13.0391C127.259 12.6836 126.84 12.5059 126.312 12.5059Z" fill="white"/>
</svg>
